<svg width="1219" height="535" viewBox="0 0 1219 535" fill="none" xmlns="http://www.w3.org/2000/svg">
<g clip-path="url(#clip0)" filter="url(#filter0_d)">
<path d="M908.805 73.121C917.323 76.4581 929.578 87.8045 935.555 97.6825C945.568 114.769 951.994 139.197 953.488 166.428C955.281 200.067 947.361 223.56 930.624 234.773C922.853 239.846 926.738 239.445 940.337 233.705C956.626 226.631 972.617 212.214 980.836 196.997C1008.93 144.536 977.996 83.3994 917.772 72.4535C902.977 69.7838 900.885 69.9173 908.805 73.121Z" fill="black"/>
<path d="M119.458 89.9403C114.825 100.085 111.089 109.162 111.089 110.23C111.089 111.298 121.251 134.258 133.655 161.356C158.462 215.818 159.956 220.357 154.726 230.902C152.634 234.907 150.243 237.71 147.852 238.511C145.61 239.178 143.966 240.113 143.966 240.513C143.966 240.914 161.451 241.181 182.821 241.181C207.777 241.181 221.675 240.647 221.675 239.846C221.675 239.045 220.629 238.511 219.434 238.511C215.997 238.511 206.731 230.502 201.202 222.893C197.615 217.82 148.599 113.567 130.965 73.2544C130.516 72.4535 129.62 71.6526 129.022 71.6526C128.424 71.6526 124.09 79.9288 119.458 89.9403Z" fill="black"/>
<path d="M232.883 72.9875C233.332 73.6549 234.677 74.3223 235.872 74.3223C239.011 74.3223 246.781 83.1325 248.425 88.6054C250.667 95.5467 250.667 217.287 248.425 224.228C246.781 229.701 239.011 238.511 235.872 238.511C234.677 238.511 233.332 239.045 232.883 239.846C232.286 240.78 244.39 241.181 267.853 241.181C287.728 241.181 303.868 240.78 303.868 240.113C303.868 239.579 301.626 238.244 298.936 237.176C295.649 235.841 292.959 233.038 290.418 228.499L286.682 221.825L286.234 159.22C285.786 91.1417 286.234 86.0692 293.557 77.1256L297.89 71.6526H264.864C243.344 71.6526 232.286 72.0531 232.883 72.9875Z" fill="black"/>
<path d="M336.446 73.7884C344.964 77.6595 352.436 88.6054 357.069 103.823C359.012 109.83 359.759 117.439 359.759 129.719C359.908 145.337 359.609 147.74 356.322 153.48C352.586 160.288 346.01 165.627 339.435 167.096L335.4 168.03L339.584 171.1C344.665 175.105 346.608 180.711 348.7 198.465C351.689 223.56 356.621 233.705 368.725 238.644C373.657 240.647 378.588 241.181 393.234 241.181C403.545 241.181 411.466 240.647 411.466 239.979C411.466 239.312 409.971 238.511 408.178 238.244C402.947 237.577 398.763 230.368 394.28 214.617C392.038 206.474 388.302 196.463 386.061 192.191C380.98 182.58 370.967 174.037 360.805 170.833C352.735 168.297 350.942 166.428 356.621 166.428C362.299 166.428 378.14 158.819 384.417 153.079C404.292 134.658 403.993 103.155 383.669 86.3361C372.91 77.526 360.058 72.854 344.516 72.0531L331.515 71.5191L336.446 73.7884Z" fill="black"/>
<path d="M437.754 73.1579C438.202 73.8253 439.547 74.4928 440.743 74.4928C443.881 74.4928 451.652 83.3029 453.296 88.7758C455.537 95.7171 455.537 217.457 453.296 224.398C451.652 229.871 443.881 238.681 440.743 238.681C439.547 238.681 438.202 239.215 437.754 240.016C437.156 240.951 449.261 241.351 472.723 241.351C492.599 241.351 508.738 240.951 508.738 240.283C508.738 239.749 506.497 238.414 503.956 237.346C500.669 236.012 497.829 233.075 495.289 228.67L491.553 222.129V156.587V91.0451L495.289 84.5043C497.829 80.0992 500.669 77.1625 503.956 75.8276C506.497 74.7597 508.738 73.4249 508.738 72.7574C508.738 72.2235 492.599 71.823 472.723 71.823C449.261 71.823 437.156 72.2235 437.754 73.1579Z" fill="black"/>
<path d="M536.996 72.4535C536.996 72.854 539.088 73.7884 541.629 74.5893C550.446 77.259 551.94 86.8701 545.215 98.3499C542.675 102.755 542.824 102.755 551.342 95.8137C563.447 85.9357 581.081 75.7907 588.105 74.8563C601.704 72.854 593.485 71.6526 566.286 71.6526C550.147 71.6526 536.996 71.9196 536.996 72.4535Z" fill="black"/>
<path d="M621.43 72.9875C621.879 73.6549 623.223 74.3223 624.419 74.3223C627.557 74.3223 635.328 83.1325 636.972 88.6054C639.214 95.5467 639.214 217.287 636.972 224.228C635.328 229.701 627.557 238.511 624.419 238.511C623.223 238.511 621.879 239.045 621.43 239.846C620.832 240.78 632.937 241.181 656.399 241.181C676.275 241.181 692.415 240.78 692.415 240.113C692.415 239.579 690.173 238.244 687.633 237.176C684.345 235.841 681.506 232.904 678.965 228.499L675.229 221.959V156.417V90.8747L678.965 84.3338C681.506 79.9288 684.345 76.9921 687.633 75.6572C690.173 74.5893 692.415 73.2544 692.415 72.587C692.415 72.0531 676.275 71.6526 656.399 71.6526C632.937 71.6526 620.832 72.0531 621.43 72.9875Z" fill="black"/>
<path d="M734.258 72.4535C734.258 72.854 736.35 73.7884 738.891 74.5893C747.708 77.259 749.202 86.8701 742.477 98.3499C739.937 102.755 740.086 102.755 748.604 95.8137C760.709 85.9357 778.343 75.7907 785.367 74.8563C798.966 72.854 790.747 71.6526 763.549 71.6526C747.409 71.6526 734.258 71.9196 734.258 72.4535Z" fill="black"/>
<path d="M1003.25 72.9875C1003.25 73.6549 1004.6 74.3224 1006.09 74.3224C1009.98 74.3224 1011.17 75.6573 1091.87 164.426C1129.98 206.207 1162.26 240.647 1163.6 240.914C1165.84 241.314 1166.14 239.312 1166.14 217.554V193.793L1110.7 132.656L1055.11 71.6526H1029.25C1012.97 71.6526 1003.25 72.1866 1003.25 72.9875Z" fill="black"/>
<path d="M1145.22 72.9874C1145.22 73.6549 1146.57 74.3223 1148.06 74.3223C1152.54 74.3223 1159.87 82.8655 1162.56 91.2751L1165.1 99.0173L1166.74 92.877C1169.28 84.0668 1173.76 77.9265 1179.29 75.6572C1181.83 74.5893 1184.08 73.2544 1184.08 72.587C1184.08 72.053 1175.41 71.6526 1164.65 71.6526C1152.69 71.6526 1145.22 72.1865 1145.22 72.9874Z" fill="black"/>
<path d="M857.397 75.5237C844.994 79.5283 835.729 85.0012 824.52 94.8792C782.229 132.522 789.701 200.067 839.315 229.167C849.178 234.907 866.065 240.246 878.469 241.715L885.941 242.516L879.216 239.579C859.788 231.036 844.695 206.741 837.97 173.102C834.384 155.082 833.636 125.047 836.476 113.3C840.66 95.2797 850.374 81.3971 862.628 75.6572C869.502 72.4535 867.261 72.32 857.397 75.5237Z" fill="black"/>
<path d="M499.038 144.002C492.761 150.143 487.979 155.749 488.278 156.55C488.577 157.351 498.44 171.234 510.246 187.252C533.858 219.823 536.847 224.895 536.996 232.237C536.996 236.375 536.398 237.577 534.007 238.11C524.742 240.246 535.203 241.181 570.62 241.181C596.025 241.181 610.222 240.647 610.222 239.846C610.222 239.045 608.877 238.511 607.233 238.511C605.44 238.511 601.256 237.176 597.818 235.708C585.415 229.968 574.655 218.087 543.272 174.704C526.535 151.878 512.189 133.056 511.591 133.056C510.844 133.056 505.165 137.995 499.038 144.002Z" fill="black"/>
<path d="M696.3 144.002C690.024 150.143 685.242 155.749 685.54 156.55C685.839 157.351 695.702 171.234 707.508 187.252C731.12 219.823 734.109 224.895 734.258 232.237C734.258 236.375 733.66 237.577 731.269 238.11C722.004 240.246 732.465 241.181 767.882 241.181C793.287 241.181 807.484 240.647 807.484 239.846C807.484 239.045 806.139 238.511 804.495 238.511C802.702 238.511 798.518 237.176 795.081 235.708C782.677 229.968 771.917 218.087 740.535 174.704C723.797 151.878 709.451 133.056 708.853 133.056C708.106 133.056 702.427 137.995 696.3 144.002Z" fill="black"/>
<path d="M58.9341 219.155C54.4509 226.764 42.1967 237.043 36.3685 237.977C25.4593 239.979 33.9775 241.181 59.0835 241.181C74.0276 241.181 85.8335 240.914 85.3851 240.513C85.0863 240.113 81.7986 238.511 78.0625 236.776C70.5905 233.305 64.7623 224.895 64.7623 217.554C64.7623 211.547 63.1184 212.081 58.9341 219.155Z" fill="black"/>
<path d="M1022.38 215.818C1021.93 216.886 1020.74 220.357 1019.69 223.427C1017.3 230.368 1009.98 238.511 1006.09 238.511C1004.6 238.511 1003.25 239.045 1003.25 239.846C1003.25 240.647 1010.72 241.181 1022.68 241.181C1034.63 241.181 1042.11 240.647 1042.11 239.846C1042.11 239.045 1040.91 238.511 1039.42 238.511C1034.34 238.511 1026.86 228.9 1024.32 218.888C1023.58 215.952 1022.83 214.617 1022.38 215.818Z" fill="black"/>
<path d="M624.867 295.376C602.152 299.781 555.826 316.2 525.041 330.884C466.609 358.782 430.594 385.079 427.157 402.7C424.915 414.313 437.319 421.121 472.736 427.929C498.739 433.001 512.637 436.338 523.995 440.076L532.363 442.879L520.856 451.956C503.372 465.839 484.094 483.993 479.611 491.068C471.541 503.482 477.519 509.756 492.612 504.95C515.925 497.742 549.101 471.579 550.446 459.431C551.193 453.024 550.147 450.221 545.066 445.682L539.686 440.877L544.468 437.406C554.929 430.198 581.081 414.98 581.529 415.915C581.679 416.582 580.483 419.919 578.84 423.523C572.264 437.006 567.631 457.429 571.069 457.429C571.666 457.429 572.264 454.893 572.264 451.689C572.563 445.415 577.495 433.668 589.749 410.308L598.117 394.69L604.543 394.557C608.13 394.423 617.993 393.889 626.661 393.355C641.904 392.288 641.754 392.288 621.131 392.688C609.326 392.955 599.761 392.955 599.761 392.688C599.761 392.421 602.451 387.215 605.888 380.941C609.176 374.667 611.567 368.794 610.969 367.993C608.578 364.522 605.291 367.993 599.313 380.007L592.887 392.688L582.426 394.023L572.115 395.358L577.644 398.428C580.633 400.03 583.472 402.299 583.921 403.5C586.162 408.84 584.668 410.575 570.172 419.118C561.953 423.79 551.193 430.465 546.112 433.802L536.697 439.809L530.421 437.406C524.294 435.137 516.822 433.401 472.139 424.057C441.653 417.65 433.882 413.779 433.882 405.102C433.882 398.161 437.02 393.088 447.182 383.611C483.646 349.305 586.013 301.517 630.994 297.779C642.352 296.845 651.169 299.247 652.813 303.786C654.756 309.392 648.778 321.006 637.57 332.886C633.983 336.624 631.144 340.895 631.144 342.364C631.144 348.237 642.651 347.436 647.582 341.296C652.514 335.022 659.538 317.936 660.434 309.392C661.331 301.784 661.182 301.25 656.848 297.379C652.813 293.641 651.318 293.24 643.548 293.374C638.765 293.374 630.397 294.308 624.867 295.376ZM590.795 396.025C590.795 398.027 587.358 404.034 586.312 404.034C585.714 404.034 584.518 402.566 583.622 400.697C582.725 398.828 581.081 397.36 580.035 397.227C577.644 397.093 584.668 394.957 588.254 394.824C589.599 394.69 590.795 395.224 590.795 396.025ZM544.468 456.762C544.468 459.031 542.525 463.569 540.134 466.907C531.467 478.92 505.165 498.81 490.669 504.149C487.083 505.484 485.14 505.484 482.151 504.283C478.863 502.948 478.415 502.147 479.312 498.409C481.255 489.599 497.394 473.047 524.294 452.223L534.754 444.214L539.686 448.352C542.974 451.422 544.468 453.825 544.468 456.762Z" fill="black"/>
<path d="M690.322 353.443C684.943 359.183 676.275 372.532 666.113 390.953C658.342 404.969 656.997 406.571 654.158 405.903C649.226 404.835 640.858 408.84 635.029 415.381C623.821 427.528 609.624 426.327 620.085 414.046C627.109 405.77 622.327 406.17 612.464 414.58C604.244 421.655 599.761 424.324 599.761 422.055C599.761 421.655 601.853 418.851 604.244 415.781C609.176 409.774 609.923 406.704 606.636 406.704C603.946 406.704 597.669 413.779 595.278 419.252C592.289 426.594 599.163 428.996 608.578 423.924C613.061 421.521 613.809 421.388 616.05 423.256C619.338 425.926 621.131 425.926 626.511 423.39C630.546 421.655 630.845 421.655 631.592 424.057C632.788 428.329 638.168 427.261 645.64 420.987C651.767 416.048 652.514 415.781 651.468 418.718C644.444 441.277 647.732 445.816 661.779 432.734C666.262 428.462 670.148 425.926 670.746 426.727C672.39 428.996 678.068 428.195 683.747 424.725C690.472 420.72 690.472 420.72 693.76 424.324C697.346 428.195 703.324 426.727 707.658 420.854C709.899 417.784 713.187 415.648 717.82 414.179C721.556 412.978 722.751 412.311 720.51 412.711C718.417 413.112 715.578 413.779 714.382 414.179C712.589 414.713 712.141 413.912 712.29 410.442C712.589 406.037 712.589 406.037 705.565 405.77C699.438 405.636 698.093 406.037 695.553 409.107C694.058 411.109 692.265 414.046 691.667 415.781C690.173 420.32 674.482 429.797 674.482 426.06C674.482 425.793 677.172 421.788 680.459 417.25C687.035 408.039 687.483 406.971 684.195 405.903C680.908 404.702 678.517 406.971 674.033 415.247C669.55 423.256 655.951 437.273 654.158 435.671C652.813 434.469 656.848 422.322 662.526 411.109C664.918 406.571 672.24 394.824 678.965 385.213C696.599 359.85 701.68 349.305 696.3 349.305C695.105 349.305 692.415 351.174 690.322 353.443ZM707.06 412.044C705.565 416.182 703.772 417.116 702.128 414.713C700.933 412.845 705.565 406.304 707.359 407.372C708.106 407.772 707.956 409.774 707.06 412.044ZM655.204 410.442C652.364 415.114 638.466 425.793 636.823 424.324C635.179 422.856 638.317 416.315 642.053 413.645C643.697 412.444 652.813 408.84 656.25 408.173C656.399 408.039 655.951 409.107 655.204 410.442ZM702.577 417.517C704.071 417.917 703.772 418.985 701.381 421.788C697.795 425.926 696.151 426.327 694.806 423.39C693.461 420.186 696.599 414.179 698.841 415.781C699.737 416.449 701.531 417.25 702.577 417.517Z" fill="black"/>
<path d="M684.943 396.025C682.552 399.896 684.195 402.967 688.23 402.433C690.92 402.166 691.667 401.231 691.667 398.028C691.667 393.089 687.483 391.887 684.943 396.025Z" fill="black"/>
</g>
<defs>
<filter id="filter0_d" x="0" y="0" width="1219" height="535" filterUnits="userSpaceOnUse" color-interpolation-filters="sRGB">
<feFlood flood-opacity="0" result="BackgroundImageFix"/>
<feColorMatrix in="SourceAlpha" type="matrix" values="0 0 0 0 0 0 0 0 0 0 0 0 0 0 0 0 0 0 127 0"/>
<feOffset dy="4"/>
<feGaussianBlur stdDeviation="2"/>
<feColorMatrix type="matrix" values="0 0 0 0 0 0 0 0 0 0 0 0 0 0 0 0 0 0 0.25 0"/>
<feBlend mode="normal" in2="BackgroundImageFix" result="effect1_dropShadow"/>
<feBlend mode="normal" in="SourceGraphic" in2="effect1_dropShadow" result="shape"/>
</filter>
<clipPath id="clip0">
<rect width="1211" height="527" fill="white" transform="translate(4)"/>
</clipPath>
</defs>
</svg>
