<?xml version="1.0" standalone="no"?>
<!DOCTYPE svg PUBLIC "-//W3C//DTD SVG 20010904//EN"
 "http://www.w3.org/TR/2001/REC-SVG-20010904/DTD/svg10.dtd">
<svg version="1.0" xmlns="http://www.w3.org/2000/svg"
 width="1050.000000pt" height="600.000000pt" viewBox="0 0 1050.000000 600.000000"
 preserveAspectRatio="xMidYMid meet">

<g transform="translate(0.000000,600.000000) scale(0.100000,-0.100000)"
fill="#000000" stroke="none">
<path d="M7268 4469 c57 -25 139 -110 179 -184 67 -128 110 -311 120 -515 12
-252 -41 -428 -153 -512 -52 -38 -26 -35 65 8 109 53 216 161 271 275 188 393
-19 851 -422 933 -99 20 -113 19 -60 -5z"/>
<path d="M1986 4343 c-31 -76 -56 -144 -56 -152 0 -8 68 -180 151 -383 166
-408 176 -442 141 -521 -14 -30 -30 -51 -46 -57 -15 -5 -26 -12 -26 -15 0 -3
117 -5 260 -5 167 0 260 4 260 10 0 6 -7 10 -15 10 -23 0 -85 60 -122 117 -24
38 -352 819 -470 1121 -3 6 -9 12 -13 12 -4 0 -33 -62 -64 -137z"/>
<path d="M2745 4470 c3 -5 12 -10 20 -10 21 0 73 -66 84 -107 15 -52 15 -964
0 -1016 -11 -41 -63 -107 -84 -107 -8 0 -17 -4 -20 -10 -4 -7 77 -10 234 -10
133 0 241 3 241 8 0 4 -15 14 -33 22 -22 10 -40 31 -57 65 l-25 50 -3 469 c-3
510 0 548 49 615 l29 41 -221 0 c-144 0 -218 -3 -214 -10z"/>
<path d="M3438 4464 c57 -29 107 -111 138 -225 13 -45 18 -102 18 -194 1 -117
-1 -135 -23 -178 -25 -51 -69 -91 -113 -102 l-27 -7 28 -23 c34 -30 47 -72 61
-205 20 -188 53 -264 134 -301 33 -15 66 -19 164 -19 69 0 122 4 122 9 0 5
-10 11 -22 13 -35 5 -63 59 -93 177 -15 61 -40 136 -55 168 -34 72 -101 136
-169 160 -54 19 -66 33 -28 33 38 0 144 57 186 100 133 138 131 374 -5 500
-72 66 -158 101 -262 107 l-87 4 33 -17z"/>
<path d="M4025 4470 c3 -5 12 -10 20 -10 21 0 73 -66 84 -107 15 -52 15 -964
0 -1016 -11 -41 -63 -107 -84 -107 -8 0 -17 -4 -20 -10 -4 -7 77 -10 234 -10
133 0 241 3 241 8 0 4 -15 14 -32 22 -22 10 -41 32 -58 65 l-25 49 0 491 0
491 25 49 c17 33 36 55 58 65 17 8 32 18 32 23 0 4 -108 7 -241 7 -157 0 -238
-3 -234 -10z"/>
<path d="M4780 4474 c0 -3 14 -10 31 -16 59 -20 69 -92 24 -178 -17 -33 -16
-33 41 19 81 74 199 150 246 157 91 15 36 24 -146 24 -108 0 -196 -2 -196 -6z"/>
<path d="M5345 4470 c3 -5 12 -10 20 -10 21 0 73 -66 84 -107 15 -52 15 -964
0 -1016 -11 -41 -63 -107 -84 -107 -8 0 -17 -4 -20 -10 -4 -7 77 -10 234 -10
133 0 241 3 241 8 0 4 -15 14 -32 22 -22 10 -41 32 -58 65 l-25 49 0 491 0
491 25 49 c17 33 36 55 58 65 17 8 32 18 32 23 0 4 -108 7 -241 7 -157 0 -238
-3 -234 -10z"/>
<path d="M6100 4474 c0 -3 14 -10 31 -16 59 -20 69 -92 24 -178 -17 -33 -16
-33 41 19 81 74 199 150 246 157 91 15 36 24 -146 24 -108 0 -196 -2 -196 -6z"/>
<path d="M7900 4470 c0 -5 9 -10 19 -10 26 0 34 -10 574 -675 255 -313 471
-571 480 -573 15 -3 17 12 17 175 l0 178 -371 458 -372 457 -173 0 c-109 0
-174 -4 -174 -10z"/>
<path d="M8850 4470 c0 -5 9 -10 19 -10 30 0 79 -64 97 -127 l17 -58 11 46
c17 66 47 112 84 129 17 8 32 18 32 23 0 4 -58 7 -130 7 -80 0 -130 -4 -130
-10z"/>
<path d="M6924 4451 c-83 -30 -145 -71 -220 -145 -283 -282 -233 -788 99
-1006 66 -43 179 -83 262 -94 l50 -6 -45 22 c-130 64 -231 246 -276 498 -24
135 -29 360 -10 448 28 135 93 239 175 282 46 24 31 25 -35 1z"/>
<path d="M4526 3938 c-42 -46 -74 -88 -72 -94 2 -6 68 -110 147 -230 158 -244
178 -282 179 -337 0 -31 -4 -40 -20 -44 -62 -16 8 -23 245 -23 170 0 265 4
265 10 0 6 -9 10 -20 10 -12 0 -40 10 -63 21 -83 43 -155 132 -365 457 -112
171 -208 312 -212 312 -5 0 -43 -37 -84 -82z"/>
<path d="M5846 3938 c-42 -46 -74 -88 -72 -94 2 -6 68 -110 147 -230 158 -244
178 -282 179 -337 0 -31 -4 -40 -20 -44 -62 -16 8 -23 245 -23 170 0 265 4
265 10 0 6 -9 10 -20 10 -12 0 -40 10 -63 21 -83 43 -155 132 -365 457 -112
171 -208 312 -212 312 -5 0 -43 -37 -84 -82z"/>
<path d="M1581 3375 c-30 -57 -112 -134 -151 -141 -73 -15 -16 -24 152 -24
100 0 179 2 176 5 -2 3 -24 15 -49 28 -50 26 -89 89 -89 144 0 45 -11 41 -39
-12z"/>
<path d="M8028 3400 c-3 -8 -11 -34 -18 -57 -16 -52 -65 -113 -91 -113 -10 0
-19 -4 -19 -10 0 -6 50 -10 130 -10 80 0 130 4 130 10 0 6 -8 10 -18 10 -34 0
-84 72 -101 147 -5 22 -10 32 -13 23z"/>
<path d="M5368 2804 c-152 -33 -462 -156 -668 -266 -391 -209 -632 -406 -655
-538 -15 -87 68 -138 305 -189 174 -38 267 -63 343 -91 l56 -21 -77 -68 c-117
-104 -246 -240 -276 -293 -54 -93 -14 -140 87 -104 156 54 378 250 387 341 5
48 -2 69 -36 103 l-36 36 32 26 c70 54 245 168 248 161 1 -5 -7 -30 -18 -57
-44 -101 -75 -254 -52 -254 4 0 8 19 8 43 2 47 35 135 117 310 l56 117 43 1
c24 1 90 5 148 9 102 8 101 8 -37 5 -79 -2 -143 -2 -143 0 0 2 18 41 41 88 22
47 38 91 34 97 -16 26 -38 0 -78 -90 l-43 -95 -70 -10 -69 -10 37 -23 c20 -12
39 -29 42 -38 15 -40 5 -53 -92 -117 -55 -35 -127 -85 -161 -110 l-63 -45 -42
18 c-41 17 -91 30 -390 100 -204 48 -256 77 -256 142 0 52 21 90 89 161 244
257 929 615 1230 643 76 7 135 -11 146 -45 13 -42 -27 -129 -102 -218 -24 -28
-43 -60 -43 -71 0 -44 77 -38 110 8 33 47 80 175 86 239 6 57 5 61 -24 90 -27
28 -37 31 -89 30 -32 0 -88 -7 -125 -15z m-228 -754 c0 -15 -23 -60 -30 -60
-4 0 -12 11 -18 25 -6 14 -17 25 -24 26 -16 1 31 17 55 18 9 1 17 -3 17 -9z
m-310 -455 c0 -17 -13 -51 -29 -76 -58 -90 -234 -239 -331 -279 -24 -10 -37
-10 -57 -1 -22 10 -25 16 -19 44 13 66 121 190 301 346 l70 60 33 -31 c22 -23
32 -41 32 -63z"/>
<path d="M5806 2369 c-36 -43 -94 -143 -162 -281 -52 -105 -61 -117 -80 -112
-33 8 -89 -22 -128 -71 -75 -91 -170 -82 -100 10 47 62 15 59 -51 -4 -55 -53
-85 -73 -85 -56 0 3 14 24 30 47 33 45 38 68 16 68 -18 0 -60 -53 -76 -94 -20
-55 26 -73 89 -35 30 18 35 19 50 5 22 -20 34 -20 70 -1 27 13 29 13 34 -5 8
-32 44 -24 94 23 41 37 46 39 39 17 -47 -169 -25 -203 69 -105 30 32 56 51 60
45 11 -17 49 -11 87 15 45 30 45 30 67 3 24 -29 64 -18 93 26 15 23 37 39 68
50 25 9 33 14 18 11 -14 -3 -33 -8 -41 -11 -12 -4 -15 2 -14 28 2 33 2 33 -45
35 -41 1 -50 -2 -67 -25 -10 -15 -22 -37 -26 -50 -10 -34 -115 -105 -115 -77
0 2 18 32 40 66 44 69 47 77 25 85 -22 9 -38 -8 -68 -70 -30 -60 -121 -165
-133 -153 -9 9 18 100 56 184 16 34 65 122 110 194 118 190 152 269 116 269
-8 0 -26 -14 -40 -31z m112 -439 c-10 -31 -22 -38 -33 -20 -8 14 23 63 35 55
5 -3 4 -18 -2 -35z m-347 12 c-19 -35 -112 -115 -123 -104 -11 11 10 60 35 80
11 9 72 36 95 41 1 1 -2 -7 -7 -17z m317 -53 c10 -3 8 -11 -8 -32 -24 -31 -35
-34 -44 -12 -9 24 12 69 27 57 6 -5 18 -11 25 -13z"/>
<path d="M5770 2050 c-16 -29 -5 -52 22 -48 18 2 23 9 23 33 0 37 -28 46 -45
15z"/>
</g>
</svg>
