<svg width="4057" height="2157" viewBox="0 0 4057 2157" fill="none" xmlns="http://www.w3.org/2000/svg">
<rect width="4057" height="2157" fill="white"/>
<path d="M2895.4 111.101C2922.84 125.932 2962.47 176.643 2981.91 220.87C3014.47 297.376 3035.69 406.89 3041.13 529.066C3047.69 679.988 3022.8 785.552 2969.3 836.156C2944.46 859.045 2956.93 857.183 3000.48 831.198C3052.63 799.172 3103.66 734.21 3129.71 665.78C3218.72 429.889 3117.91 156.057 2924.18 107.954C2876.6 96.2233 2869.88 96.8577 2895.4 111.101Z" fill="black"/>
<path d="M360.157 199.907C345.515 245.511 333.727 286.308 333.753 291.101C333.778 295.892 366.963 398.753 407.446 520.147C488.419 764.131 493.328 784.472 476.773 831.884C470.149 849.889 462.532 862.509 454.872 866.142C447.686 869.178 442.428 873.399 442.437 875.196C442.447 876.992 498.621 877.898 567.266 877.537C647.436 877.116 692.069 874.484 692.05 870.886C692.031 867.293 688.655 864.913 684.818 864.934C673.776 864.992 643.825 829.209 625.881 795.16C614.242 772.457 454.325 305.443 396.727 124.834C395.268 121.248 392.369 117.669 390.449 117.679C388.529 117.689 374.802 154.902 360.157 199.907Z" fill="black"/>
<path d="M724.116 121.915C725.57 124.902 729.91 127.875 733.751 127.854C743.828 127.802 769.001 167.206 774.41 191.739C781.774 222.85 784.646 769.164 777.609 800.352C772.458 824.94 747.702 864.603 737.624 864.656C733.783 864.676 729.472 867.096 728.052 870.696C726.154 874.9 765.046 876.497 840.414 876.101C904.263 875.765 956.099 873.691 956.083 870.699C956.071 868.302 948.839 862.35 940.175 857.601C929.579 851.667 920.874 839.132 912.607 818.808L900.447 788.922L897.527 507.986C894.483 202.489 895.802 179.719 919.117 139.46L932.907 114.827L826.816 115.385C757.688 115.748 722.173 117.732 724.116 121.915Z" fill="black"/>
<path d="M1056.81 123.76C1084.27 140.988 1108.53 189.982 1123.77 258.193C1130.15 285.116 1132.73 319.248 1133.02 374.359C1133.87 444.442 1132.96 455.23 1122.54 481.044C1110.7 511.657 1089.7 535.729 1068.61 542.43L1055.68 546.691L1069.19 560.398C1085.61 578.283 1091.98 603.411 1099.12 683.045C1109.31 795.611 1125.39 841.054 1164.39 863.013C1180.28 871.917 1196.14 874.231 1243.18 873.984C1276.31 873.809 1301.74 871.279 1301.72 868.281C1301.7 865.289 1296.88 861.716 1291.12 860.55C1274.3 857.641 1260.69 825.366 1245.91 754.759C1238.52 718.252 1226.29 673.389 1218.98 654.261C1202.43 611.217 1170.07 573.047 1137.35 558.842C1111.37 547.596 1105.56 539.24 1123.81 539.144C1142.05 539.048 1192.75 504.637 1212.78 478.772C1276.19 395.771 1274.49 254.406 1208.8 179.272C1174.03 139.917 1132.64 119.168 1082.69 115.837L1040.91 113.66L1056.81 123.76Z" fill="black"/>
<path d="M1338.58 118.685C1340.04 121.673 1344.37 124.645 1348.22 124.625C1358.3 124.572 1383.47 163.977 1388.88 188.509C1396.24 219.621 1399.11 765.934 1392.08 797.123C1386.93 821.71 1362.17 861.373 1352.09 861.426C1348.25 861.446 1343.94 863.866 1342.52 867.466C1340.62 871.67 1379.51 873.267 1454.88 872.871C1518.73 872.536 1570.57 870.461 1570.55 867.469C1570.54 865.072 1563.31 859.12 1555.12 854.369C1544.53 848.435 1535.34 835.307 1527.07 815.579L1514.92 786.293L1513.37 492.169L1511.83 198.047L1523.67 168.631C1531.73 148.82 1540.78 135.594 1551.31 129.548C1559.45 124.713 1566.62 118.685 1566.6 115.689C1566.59 113.293 1514.73 111.769 1450.88 112.105C1375.52 112.501 1336.64 114.502 1338.58 118.685Z" fill="black"/>
<path d="M1701.01 114.384C1701.02 116.181 1707.76 120.339 1715.94 123.89C1744.33 135.721 1749.36 178.826 1728.03 230.456C1719.97 250.267 1720.45 250.264 1747.65 218.971C1786.3 174.438 1842.7 128.615 1865.24 124.303C1908.88 115.088 1882.45 109.836 1795.08 110.295C1743.23 110.568 1701 111.988 1701.01 114.384Z" fill="black"/>
<path d="M1972.25 115.354C1973.71 118.342 1978.04 121.314 1981.89 121.294C1991.97 121.241 2017.14 160.645 2022.54 185.178C2029.91 216.29 2032.78 762.603 2025.74 793.791C2020.59 818.379 1995.84 858.042 1985.76 858.095C1981.92 858.115 1977.61 860.535 1976.19 864.135C1974.29 868.339 2013.19 869.936 2088.55 869.54C2152.4 869.204 2204.23 867.13 2204.22 864.138C2204.21 861.741 2196.97 855.789 2188.79 851.038C2178.2 845.103 2169.01 831.976 2160.74 812.247L2148.58 782.962L2147.04 488.837L2145.49 194.715L2157.34 165.3C2165.4 145.489 2174.45 132.262 2184.98 126.217C2193.11 121.382 2200.28 115.354 2200.27 112.358C2200.25 109.962 2148.4 108.438 2084.55 108.773C2009.19 109.17 1970.31 111.171 1972.25 115.354Z" fill="black"/>
<path d="M2334.68 111.052C2334.69 112.849 2341.43 117.007 2349.61 120.559C2378 132.39 2383.03 175.495 2361.69 227.125C2353.63 246.936 2354.12 246.933 2381.32 215.64C2419.97 171.107 2476.38 125.283 2498.92 120.972C2542.55 111.757 2516.12 106.504 2428.75 106.964C2376.91 107.236 2334.66 108.656 2334.68 111.052Z" fill="black"/>
<path d="M3198.78 108.907C3198.8 111.902 3203.14 114.874 3207.94 114.849C3220.42 114.784 3224.29 120.753 3485.61 517.744C3609.01 704.596 3713.52 858.601 3717.84 859.774C3725.06 861.533 3725.97 852.546 3725.46 754.901L3724.9 648.275L3545.35 374.857L3365.33 102.041L3282.29 102.477C3229.96 102.752 3198.77 105.312 3198.78 108.907Z" fill="black"/>
<path d="M3654.83 106.509C3654.85 109.504 3659.19 112.477 3663.99 112.451C3678.39 112.376 3702.12 150.59 3710.95 188.283L3719.3 222.984L3724.43 195.401C3732.38 155.822 3746.64 128.191 3764.35 117.914C3772.49 113.079 3779.66 107.051 3779.64 104.056C3779.63 101.66 3751.78 100.009 3717.21 100.191C3678.81 100.393 3654.82 102.915 3654.83 106.509Z" fill="black"/>
<path d="M2730.31 122.751C2690.57 140.932 2660.93 165.648 2625.16 210.165C2490.19 379.805 2515.79 682.784 2675.85 812.538C2707.67 838.127 2762.04 861.806 2801.92 868.182L2825.94 871.654L2804.27 858.587C2741.67 820.579 2692.61 711.81 2670.21 560.968C2658.26 480.16 2655.15 345.391 2664 292.629C2677.01 211.69 2707.89 149.227 2747.12 123.262C2769.13 108.769 2761.92 108.208 2730.31 122.751Z" fill="black"/>
<path d="M1580.76 436.103C1560.75 463.764 1545.52 489.004 1546.5 492.593C1547.48 496.182 1579.49 558.314 1617.79 629.996C1694.41 775.761 1704.12 798.474 1704.78 831.418C1704.88 849.988 1702.99 855.388 1695.32 857.825C1665.6 867.57 1699.23 871.586 1813 870.988C1894.61 870.559 1940.2 867.922 1940.18 864.324C1940.17 860.731 1935.83 858.357 1930.55 858.385C1924.79 858.415 1911.32 852.496 1900.24 845.969C1860.26 820.417 1825.42 767.286 1723.59 573.132C1669.28 470.981 1622.75 386.761 1620.83 386.771C1618.43 386.784 1600.3 409.043 1580.76 436.103Z" fill="black"/>
<path d="M2214.44 432.772C2194.42 460.433 2179.19 485.674 2180.17 489.262C2181.15 492.852 2213.16 554.984 2251.46 626.665C2328.07 772.43 2337.8 795.143 2338.45 828.088C2338.54 846.658 2336.65 852.057 2328.99 854.494C2299.27 864.239 2332.9 868.256 2446.67 867.658C2528.28 867.229 2573.87 864.592 2573.85 860.994C2573.83 857.401 2569.5 855.026 2564.22 855.054C2558.46 855.084 2544.99 849.165 2533.91 842.638C2493.93 817.087 2459.09 763.955 2357.25 569.801C2302.95 467.65 2256.42 383.43 2254.5 383.44C2252.1 383.453 2233.97 405.713 2214.44 432.772Z" fill="black"/>
<path d="M168.784 780.789C154.562 815.007 115.44 861.341 96.7396 865.633C61.7432 874.799 89.1345 880.05 169.783 879.626C217.789 879.374 255.706 877.973 254.257 876.185C253.287 874.393 242.688 867.258 230.646 859.534C206.561 844.088 187.641 806.446 187.468 773.499C187.326 746.542 182.058 748.967 168.784 780.789Z" fill="black"/>
<path d="M3263.6 749.542C3262.19 754.344 3258.43 769.936 3255.14 783.73C3247.62 814.921 3224.29 851.584 3211.81 851.649C3207.01 851.675 3202.7 854.094 3202.72 857.687C3202.74 861.285 3226.76 863.556 3265.16 863.354C3303.57 863.153 3327.55 860.629 3327.54 857.031C3327.52 853.438 3323.66 851.061 3318.86 851.087C3302.54 851.173 3278.31 808.169 3269.92 763.285C3267.45 750.123 3265.01 744.145 3263.6 749.542Z" fill="black"/>
<path d="M1932.97 1199.14C1860.1 1219.29 1711.67 1293.75 1613.13 1360.17C1426.09 1486.35 1311.02 1604.97 1300.39 1684.09C1293.46 1736.25 1333.47 1766.59 1447.4 1796.54C1531.05 1818.87 1575.77 1833.6 1612.34 1850.19L1639.29 1862.62L1602.54 1903.55C1546.7 1966.15 1485.2 2047.94 1470.97 2079.77C1445.34 2135.61 1464.69 2163.66 1513.06 2141.84C1587.78 2109.1 1693.74 1991.13 1697.77 1936.6C1700.02 1907.83 1696.59 1895.27 1680.16 1874.99L1662.77 1853.52L1678.05 1837.86C1711.48 1805.34 1795.13 1736.6 1796.59 1740.79C1797.09 1743.79 1793.33 1758.78 1788.13 1774.98C1767.33 1835.59 1752.93 1927.32 1763.97 1927.26C1765.89 1927.25 1767.75 1915.86 1767.68 1901.49C1768.49 1873.33 1784.05 1820.53 1822.87 1715.49L1849.38 1645.27L1870.02 1644.56C1881.54 1643.9 1913.21 1641.33 1941.04 1638.79C1989.98 1633.75 1989.5 1633.75 1923.26 1635.89C1885.34 1637.29 1854.62 1637.45 1854.61 1636.25C1854.6 1635.05 1863.13 1611.65 1874.02 1583.44C1884.43 1555.22 1891.97 1528.83 1890.04 1525.24C1882.27 1509.71 1871.79 1525.34 1852.87 1579.36L1832.53 1636.37L1798.96 1642.54L1765.87 1648.7L1783.7 1662.38C1793.34 1669.52 1802.51 1679.66 1803.98 1685.04C1811.31 1708.97 1806.55 1716.78 1760.19 1755.36C1733.89 1776.47 1699.49 1806.6 1683.24 1821.66L1653.14 1848.77L1632.93 1838.1C1613.19 1828.02 1589.15 1820.36 1445.39 1779.18C1347.3 1750.94 1322.25 1733.7 1322.05 1694.76C1321.88 1663.61 1331.85 1640.8 1364.27 1598.1C1480.59 1443.53 1808.3 1227.35 1952.7 1209.82C1989.17 1205.43 2017.55 1216.07 2022.93 1236.4C2029.31 1261.53 2010.38 1313.75 1974.66 1367.25C1963.22 1384.08 1954.2 1403.3 1954.23 1409.89C1954.37 1436.25 1991.32 1432.46 2007.02 1404.82C2022.71 1376.58 2044.87 1299.79 2047.55 1261.44C2050.25 1227.28 2049.76 1224.88 2035.75 1207.58C2022.7 1190.88 2017.88 1189.11 1992.93 1189.84C1977.57 1189.92 1950.7 1194.25 1932.97 1199.14ZM1825.89 1651.38C1825.94 1660.36 1815.04 1687.38 1811.68 1687.4C1809.76 1687.41 1805.88 1680.84 1802.95 1672.47C1800.03 1664.09 1794.71 1657.54 1791.35 1656.95C1783.67 1656.39 1806.18 1646.69 1817.7 1646.03C1822.02 1645.41 1825.87 1647.78 1825.89 1651.38ZM1678.51 1924.72C1678.56 1934.9 1672.43 1955.3 1664.82 1970.32C1637.26 2024.38 1553.24 2114.08 1506.8 2138.28C1495.32 2144.33 1489.07 2144.36 1479.44 2139.03C1468.85 2133.09 1467.39 2129.51 1470.18 2112.72C1476.22 2073.15 1527.67 1998.59 1613.59 1904.69L1647 1868.57L1662.95 1887.06C1673.58 1900.78 1678.44 1911.54 1678.51 1924.72Z" fill="black"/>
<path d="M2200.17 1372.75C2183.03 1398.6 2155.5 1458.64 2123.29 1541.48C2098.66 1604.51 2094.38 1611.72 2085.24 1608.78C2069.37 1604.07 2042.58 1622.18 2024.01 1651.63C1988.3 1706.33 1942.66 1701.18 1975.98 1645.89C1998.34 1608.63 1982.99 1610.51 1951.51 1648.42C1925.27 1680.3 1910.93 1692.36 1910.88 1682.17C1910.87 1680.38 1917.53 1667.76 1925.13 1653.95C1940.83 1626.91 1943.16 1613.12 1932.6 1613.17C1923.96 1613.22 1903.96 1645.07 1896.41 1669.67C1886.98 1702.67 1909.12 1713.33 1939.25 1690.41C1953.59 1679.55 1955.99 1678.95 1963.23 1687.29C1973.86 1699.22 1979.62 1699.19 1996.84 1687.71C2009.76 1679.86 2010.72 1679.85 2013.18 1690.62C2017.12 1709.77 2034.37 1704.89 2058.23 1676.61C2077.8 1654.34 2080.19 1653.13 2076.9 1666.33C2054.87 1767.68 2065.54 1787.99 2110.35 1729.05C2124.65 1709.8 2137.08 1698.36 2139.01 1701.94C2144.35 1712.1 2162.57 1708.41 2180.73 1692.74C2202.24 1674.65 2202.24 1674.65 2212.89 1690.77C2224.5 1708.08 2243.67 1701.39 2257.45 1674.96C2264.57 1661.15 2275.09 1651.51 2289.93 1644.84C2301.91 1639.38 2305.73 1636.37 2298.54 1638.21C2291.83 1640.04 2282.72 1643.08 2278.9 1644.9C2273.15 1647.32 2271.69 1643.74 2272.08 1628.16C2272.94 1608.39 2272.94 1608.39 2250.37 1607.31C2230.68 1606.81 2226.37 1608.63 2218.29 1622.45C2213.53 1631.46 2207.84 1644.67 2205.96 1652.47C2201.27 1672.86 2151.09 1715.66 2151 1698.88C2150.99 1697.69 2159.54 1679.67 2170 1659.25C2190.9 1617.8 2192.32 1613 2181.73 1608.27C2171.14 1602.93 2163.51 1613.15 2149.3 1650.37C2135.09 1686.39 2091.74 1749.52 2085.94 1742.36C2081.59 1736.99 2094.27 1682.41 2112.24 1631.99C2119.82 1611.59 2143.06 1558.75 2164.44 1515.51C2220.48 1401.39 2236.56 1353.98 2219.28 1354.07C2215.44 1354.09 2206.84 1362.53 2200.17 1372.75ZM2255.32 1635.44C2250.62 1654.03 2244.88 1658.26 2239.54 1647.5C2235.66 1639.13 2250.39 1609.71 2256.17 1614.46C2258.58 1616.25 2258.15 1625.24 2255.32 1635.44ZM2088.71 1629.13C2079.69 1650.14 2035.3 1698.29 2029.99 1691.73C2024.67 1685.17 2034.6 1655.77 2046.53 1643.72C2051.79 1638.3 2080.98 1621.98 2092.01 1618.93C2092.49 1618.32 2091.07 1623.12 2088.71 1629.13ZM2241.05 1660.07C2245.86 1661.84 2244.92 1666.64 2237.31 1679.26C2225.88 1697.89 2220.61 1699.72 2216.22 1686.56C2211.83 1672.21 2221.77 1645.2 2229.01 1652.35C2231.9 1655.33 2237.68 1658.89 2241.05 1660.07Z" fill="black"/>
<path d="M2183.9 1563.93C2176.3 1581.34 2181.66 1595.09 2194.61 1592.62C2203.24 1591.38 2205.62 1587.18 2205.55 1572.8C2205.43 1550.64 2191.96 1545.31 2183.9 1563.93Z" fill="black"/>
</svg>
