<svg width="634" height="201" viewBox="0 0 634 201" fill="none" xmlns="http://www.w3.org/2000/svg">
<g clip-path="url(#clip0)">
<path d="M244 91.4548C244 160.049 205.622 189.955 152.032 189.955C98.4428 189.955 55 134.348 55 65.7542C55 -2.83995 91.9106 12.4548 145.5 12.4548C199.089 12.4548 244 22.8607 244 91.4548Z" fill="#F3D745"/>
<g clip-path="url(#clip1)">
<path d="M144.588 79.1964C139.239 73.2348 130.658 71.4708 122.652 74.6992C121.049 75.3509 118.732 76.6658 111.487 81.018L102.315 86.528L101.177 85.6306C98.0941 83.1544 93.4752 82.5339 89.3881 84.031C86.8003 84.9892 86.7814 84.4824 89.4585 88.9386L91.7922 92.8233L69.066 106.554C46.57 120.147 46.3081 120.329 44.9992 121.66C39.7109 127.04 37.7337 133.567 39.3305 140.305C39.7525 142.099 39.8555 142.271 45.3126 151.354C50.7013 160.324 50.9048 160.617 52.2031 161.781C57.5127 166.445 64.3959 167.752 71.6794 165.502C73.0564 165.09 75.3493 163.737 96.0094 151.404L118.816 137.807L121.161 141.711L123.506 145.615L124.443 144.897C128.488 141.716 130.395 137.253 129.575 132.899L129.317 131.473L138.279 126.089C143.451 122.982 147.896 120.182 148.77 119.502C155.072 114.575 157.929 106.95 156.239 99.4901C155.864 97.8229 155.691 97.4867 150.585 88.8919C147.675 84.0027 144.969 79.6419 144.588 79.1964ZM125.818 111.751C127.486 115.855 128.528 120.153 128.655 123.447C128.676 124.289 128.694 125.031 128.675 125.094C128.665 125.127 125.23 126.049 121.072 127.096L113.476 129.015L113.178 128.236C110.555 121.259 102.523 107.89 97.5956 102.297L97.0467 101.667L102.308 95.8622C105.185 92.6828 107.613 90.0831 107.646 90.0898C107.711 90.1027 108.357 90.4657 109.091 90.8812C112.783 93.0429 116.689 96.8394 120.518 102.03C121.67 103.566 124.964 109.62 125.818 111.751ZM70.6762 124.843C73.3815 130.579 78.7683 139.213 82.7956 144.258C83.4246 145.021 84.024 145.827 84.1609 146.055C84.3896 146.436 83.9403 147.017 79.42 152.013C76.6549 155.049 74.292 157.66 74.1799 157.805C73.8918 158.134 70.393 155.96 68.4084 154.223C64.6944 150.935 62.1212 147.789 59.2382 142.99C56.3552 138.191 54.7863 134.442 53.6271 129.619C53.0248 127.052 52.7495 122.94 53.175 122.841C53.3563 122.81 56.7721 121.95 60.782 120.94L68.0597 119.107L68.6109 120.357C68.902 121.036 69.8364 123.067 70.6762 124.843Z" fill="black"/>
</g>
<path d="M296.89 75.84C296.657 78.0333 296.003 79.7133 294.93 80.88C293.903 82.0467 292.387 82.63 290.38 82.63C288.887 82.63 287.557 82.28 286.39 81.58C285.223 80.8333 283.963 79.5967 282.61 77.87L275.68 69.19V81.93C275.167 82.0233 274.397 82.14 273.37 82.28C272.39 82.4667 271.387 82.56 270.36 82.56C269.333 82.56 268.4 82.49 267.56 82.35C266.767 82.21 266.09 81.93 265.53 81.51C264.97 81.09 264.527 80.53 264.2 79.83C263.92 79.0833 263.78 78.1267 263.78 76.96V36.43C264.293 36.29 265.04 36.15 266.02 36.01C267.047 35.8233 268.073 35.73 269.1 35.73C270.127 35.73 271.037 35.8 271.83 35.94C272.67 36.08 273.37 36.36 273.93 36.78C274.49 37.2 274.91 37.7833 275.19 38.53C275.517 39.23 275.68 40.1633 275.68 41.33V59.81L287.72 47.49C290.147 47.49 292.083 48.0267 293.53 49.1C295.023 50.1733 295.77 51.5267 295.77 53.16C295.77 53.86 295.653 54.5133 295.42 55.12C295.187 55.68 294.813 56.2633 294.3 56.87C293.833 57.4767 293.203 58.13 292.41 58.83C291.663 59.4833 290.777 60.2533 289.75 61.14L285.69 64.64L296.89 75.84ZM317.165 74.44C317.958 74.44 318.822 74.37 319.755 74.23C320.735 74.0433 321.458 73.81 321.925 73.53V67.93L316.885 68.35C315.578 68.4433 314.505 68.7233 313.665 69.19C312.825 69.6567 312.405 70.3567 312.405 71.29C312.405 72.2233 312.755 72.9933 313.455 73.6C314.202 74.16 315.438 74.44 317.165 74.44ZM316.605 46.93C319.125 46.93 321.412 47.1867 323.465 47.7C325.565 48.2133 327.338 49.0067 328.785 50.08C330.278 51.1067 331.422 52.4367 332.215 54.07C333.008 55.6567 333.405 57.5467 333.405 59.74V75.42C333.405 76.6333 333.055 77.6367 332.355 78.43C331.702 79.1767 330.908 79.83 329.975 80.39C326.942 82.21 322.672 83.12 317.165 83.12C314.692 83.12 312.452 82.8867 310.445 82.42C308.485 81.9533 306.782 81.2533 305.335 80.32C303.935 79.3867 302.838 78.1967 302.045 76.75C301.298 75.3033 300.925 73.6233 300.925 71.71C300.925 68.49 301.882 66.0167 303.795 64.29C305.708 62.5633 308.672 61.49 312.685 61.07L321.855 60.09V59.6C321.855 58.2467 321.248 57.29 320.035 56.73C318.868 56.1233 317.165 55.82 314.925 55.82C313.152 55.82 311.425 56.0067 309.745 56.38C308.065 56.7533 306.548 57.22 305.195 57.78C304.588 57.36 304.075 56.73 303.655 55.89C303.235 55.0033 303.025 54.0933 303.025 53.16C303.025 51.9467 303.305 50.99 303.865 50.29C304.472 49.5433 305.382 48.9133 306.595 48.4C307.948 47.8867 309.535 47.5133 311.355 47.28C313.222 47.0467 314.972 46.93 316.605 46.93ZM352.581 81.93C352.114 82.07 351.368 82.21 350.341 82.35C349.361 82.49 348.334 82.56 347.261 82.56C346.234 82.56 345.301 82.49 344.461 82.35C343.668 82.21 342.991 81.93 342.431 81.51C341.871 81.09 341.428 80.53 341.101 79.83C340.821 79.0833 340.681 78.1267 340.681 76.96V55.96C340.681 54.8867 340.868 53.9767 341.241 53.23C341.661 52.4367 342.244 51.7367 342.991 51.13C343.738 50.5233 344.648 49.9867 345.721 49.52C346.841 49.0067 348.031 48.5633 349.291 48.19C350.551 47.8167 351.858 47.5367 353.211 47.35C354.564 47.1167 355.918 47 357.271 47C359.511 47 361.284 47.4433 362.591 48.33C363.898 49.17 364.551 50.57 364.551 52.53C364.551 53.1833 364.458 53.8367 364.271 54.49C364.084 55.0967 363.851 55.6567 363.571 56.17C362.591 56.17 361.588 56.2167 360.561 56.31C359.534 56.4033 358.531 56.5433 357.551 56.73C356.571 56.9167 355.638 57.1267 354.751 57.36C353.911 57.5467 353.188 57.78 352.581 58.06V81.93ZM382.995 74.44C383.788 74.44 384.652 74.37 385.585 74.23C386.565 74.0433 387.288 73.81 387.755 73.53V67.93L382.715 68.35C381.408 68.4433 380.335 68.7233 379.495 69.19C378.655 69.6567 378.235 70.3567 378.235 71.29C378.235 72.2233 378.585 72.9933 379.285 73.6C380.032 74.16 381.268 74.44 382.995 74.44ZM382.435 46.93C384.955 46.93 387.242 47.1867 389.295 47.7C391.395 48.2133 393.168 49.0067 394.615 50.08C396.108 51.1067 397.252 52.4367 398.045 54.07C398.838 55.6567 399.235 57.5467 399.235 59.74V75.42C399.235 76.6333 398.885 77.6367 398.185 78.43C397.532 79.1767 396.738 79.83 395.805 80.39C392.772 82.21 388.502 83.12 382.995 83.12C380.522 83.12 378.282 82.8867 376.275 82.42C374.315 81.9533 372.612 81.2533 371.165 80.32C369.765 79.3867 368.668 78.1967 367.875 76.75C367.128 75.3033 366.755 73.6233 366.755 71.71C366.755 68.49 367.712 66.0167 369.625 64.29C371.538 62.5633 374.502 61.49 378.515 61.07L387.685 60.09V59.6C387.685 58.2467 387.078 57.29 385.865 56.73C384.698 56.1233 382.995 55.82 380.755 55.82C378.982 55.82 377.255 56.0067 375.575 56.38C373.895 56.7533 372.378 57.22 371.025 57.78C370.418 57.36 369.905 56.73 369.485 55.89C369.065 55.0033 368.855 54.0933 368.855 53.16C368.855 51.9467 369.135 50.99 369.695 50.29C370.302 49.5433 371.212 48.9133 372.425 48.4C373.778 47.8867 375.365 47.5133 377.185 47.28C379.052 47.0467 380.802 46.93 382.435 46.93ZM428.071 60.44C428.071 58.9933 427.651 57.9433 426.811 57.29C426.018 56.59 424.921 56.24 423.521 56.24C422.588 56.24 421.654 56.3567 420.721 56.59C419.834 56.8233 419.064 57.1733 418.411 57.64V81.93C417.944 82.07 417.198 82.21 416.171 82.35C415.191 82.49 414.164 82.56 413.091 82.56C412.064 82.56 411.131 82.49 410.291 82.35C409.498 82.21 408.821 81.93 408.261 81.51C407.701 81.09 407.258 80.53 406.931 79.83C406.651 79.0833 406.511 78.1267 406.511 76.96V55.96C406.511 54.7 406.768 53.6733 407.281 52.88C407.841 52.0867 408.588 51.3633 409.521 50.71C411.108 49.59 413.091 48.68 415.471 47.98C417.898 47.28 420.581 46.93 423.521 46.93C428.794 46.93 432.854 48.0967 435.701 50.43C438.548 52.7167 439.971 55.9133 439.971 60.02V81.93C439.504 82.07 438.758 82.21 437.731 82.35C436.751 82.49 435.724 82.56 434.651 82.56C433.624 82.56 432.691 82.49 431.851 82.35C431.058 82.21 430.381 81.93 429.821 81.51C429.261 81.09 428.818 80.53 428.491 79.83C428.211 79.0833 428.071 78.1267 428.071 76.96V60.44ZM473.235 70.31C473.235 71.5233 473.609 72.3867 474.355 72.9C475.149 73.4133 476.245 73.67 477.645 73.67C478.345 73.67 479.069 73.6233 479.815 73.53C480.562 73.39 481.215 73.2267 481.775 73.04C482.195 73.5533 482.545 74.1367 482.825 74.79C483.152 75.3967 483.315 76.1433 483.315 77.03C483.315 78.8033 482.639 80.25 481.285 81.37C479.979 82.49 477.645 83.05 474.285 83.05C470.179 83.05 467.005 82.1167 464.765 80.25C462.572 78.3833 461.475 75.35 461.475 71.15V41.19C461.989 41.05 462.712 40.91 463.645 40.77C464.625 40.5833 465.652 40.49 466.725 40.49C468.779 40.49 470.365 40.8633 471.485 41.61C472.652 42.31 473.235 43.8267 473.235 46.16V50.64H482.405C482.685 51.1533 482.942 51.8067 483.175 52.6C483.455 53.3467 483.595 54.1867 483.595 55.12C483.595 56.7533 483.222 57.9433 482.475 58.69C481.775 59.39 480.819 59.74 479.605 59.74H473.235V70.31ZM524.163 64.99C524.163 67.8833 523.719 70.4733 522.833 72.76C521.946 75 520.686 76.89 519.053 78.43C517.466 79.97 515.553 81.1367 513.313 81.93C511.073 82.7233 508.576 83.12 505.823 83.12C503.069 83.12 500.573 82.7 498.333 81.86C496.093 81.02 494.156 79.83 492.523 78.29C490.936 76.7033 489.699 74.79 488.813 72.55C487.926 70.31 487.483 67.79 487.483 64.99C487.483 62.2367 487.926 59.74 488.813 57.5C489.699 55.26 490.936 53.37 492.523 51.83C494.156 50.2433 496.093 49.03 498.333 48.19C500.573 47.35 503.069 46.93 505.823 46.93C508.576 46.93 511.073 47.3733 513.313 48.26C515.553 49.1 517.466 50.3133 519.053 51.9C520.686 53.44 521.946 55.33 522.833 57.57C523.719 59.81 524.163 62.2833 524.163 64.99ZM499.663 64.99C499.663 67.8367 500.199 70.03 501.273 71.57C502.393 73.0633 503.933 73.81 505.892 73.81C507.853 73.81 509.346 73.04 510.373 71.5C511.446 69.96 511.983 67.79 511.983 64.99C511.983 62.19 511.446 60.0433 510.373 58.55C509.299 57.01 507.783 56.24 505.823 56.24C503.863 56.24 502.346 57.01 501.273 58.55C500.199 60.0433 499.663 62.19 499.663 64.99ZM529.968 48.47C530.435 48.33 531.158 48.19 532.138 48.05C533.165 47.91 534.215 47.84 535.288 47.84C536.315 47.84 537.225 47.91 538.018 48.05C538.858 48.19 539.558 48.47 540.118 48.89C540.678 49.31 541.098 49.8933 541.378 50.64C541.705 51.34 541.868 52.2733 541.868 53.44V68.49C541.868 70.4033 542.335 71.78 543.268 72.62C544.201 73.4133 545.555 73.81 547.328 73.81C548.401 73.81 549.265 73.7167 549.918 73.53C550.618 73.3433 551.155 73.1567 551.528 72.97V48.47C551.995 48.33 552.718 48.19 553.698 48.05C554.725 47.91 555.775 47.84 556.848 47.84C557.875 47.84 558.785 47.91 559.578 48.05C560.418 48.19 561.118 48.47 561.678 48.89C562.238 49.31 562.658 49.8933 562.938 50.64C563.265 51.34 563.428 52.2733 563.428 53.44V74.72C563.428 77.0533 562.448 78.8033 560.488 79.97C558.855 80.9967 556.895 81.7667 554.608 82.28C552.368 82.84 549.918 83.12 547.258 83.12C544.738 83.12 542.405 82.84 540.258 82.28C538.158 81.72 536.338 80.8567 534.798 79.69C533.258 78.5233 532.068 77.03 531.228 75.21C530.388 73.3433 529.968 71.1033 529.968 68.49V48.47ZM582.61 81.93C582.144 82.07 581.397 82.21 580.37 82.35C579.39 82.49 578.364 82.56 577.29 82.56C576.264 82.56 575.33 82.49 574.49 82.35C573.697 82.21 573.02 81.93 572.46 81.51C571.9 81.09 571.457 80.53 571.13 79.83C570.85 79.0833 570.71 78.1267 570.71 76.96V55.96C570.71 54.8867 570.897 53.9767 571.27 53.23C571.69 52.4367 572.274 51.7367 573.02 51.13C573.767 50.5233 574.677 49.9867 575.75 49.52C576.87 49.0067 578.06 48.5633 579.32 48.19C580.58 47.8167 581.887 47.5367 583.24 47.35C584.594 47.1167 585.947 47 587.3 47C589.54 47 591.314 47.4433 592.62 48.33C593.927 49.17 594.58 50.57 594.58 52.53C594.58 53.1833 594.487 53.8367 594.3 54.49C594.114 55.0967 593.88 55.6567 593.6 56.17C592.62 56.17 591.617 56.2167 590.59 56.31C589.564 56.4033 588.56 56.5433 587.58 56.73C586.6 56.9167 585.667 57.1267 584.78 57.36C583.94 57.5467 583.217 57.78 582.61 58.06V81.93ZM628.19 71.85C628.19 75.3967 626.86 78.1733 624.2 80.18C621.54 82.1867 617.62 83.19 612.44 83.19C610.48 83.19 608.66 83.05 606.98 82.77C605.3 82.49 603.853 82.07 602.64 81.51C601.473 80.9033 600.54 80.1567 599.84 79.27C599.186 78.3833 598.86 77.3333 598.86 76.12C598.86 75 599.093 74.0667 599.56 73.32C600.026 72.5267 600.586 71.8733 601.24 71.36C602.593 72.1067 604.133 72.7833 605.86 73.39C607.633 73.95 609.663 74.23 611.95 74.23C613.396 74.23 614.493 74.02 615.24 73.6C616.033 73.18 616.43 72.62 616.43 71.92C616.43 71.2667 616.15 70.7533 615.59 70.38C615.03 70.0067 614.096 69.7033 612.79 69.47L610.69 69.05C606.63 68.2567 603.596 67.02 601.59 65.34C599.63 63.6133 598.65 61.1633 598.65 57.99C598.65 56.2633 599.023 54.7 599.77 53.3C600.516 51.9 601.566 50.7333 602.92 49.8C604.273 48.8667 605.883 48.1433 607.75 47.63C609.663 47.1167 611.763 46.86 614.05 46.86C615.776 46.86 617.386 47 618.88 47.28C620.42 47.5133 621.75 47.8867 622.87 48.4C623.99 48.9133 624.876 49.59 625.53 50.43C626.183 51.2233 626.51 52.18 626.51 53.3C626.51 54.3733 626.3 55.3067 625.88 56.1C625.506 56.8467 625.016 57.4767 624.41 57.99C624.036 57.7567 623.476 57.5233 622.73 57.29C621.983 57.01 621.166 56.7767 620.28 56.59C619.393 56.3567 618.483 56.17 617.55 56.03C616.663 55.89 615.846 55.82 615.1 55.82C613.56 55.82 612.37 56.0067 611.53 56.38C610.69 56.7067 610.27 57.2433 610.27 57.99C610.27 58.5033 610.503 58.9233 610.97 59.25C611.436 59.5767 612.323 59.88 613.63 60.16L615.8 60.65C620.28 61.6767 623.453 63.1 625.32 64.92C627.233 66.6933 628.19 69.0033 628.19 71.85ZM306.704 160.54C307.59 160.167 308.407 159.91 309.154 159.77C309.947 159.583 310.74 159.49 311.534 159.49C312.654 159.49 313.564 159.653 314.264 159.98C314.964 160.307 315.5 160.773 315.874 161.38C316.294 161.94 316.574 162.617 316.714 163.41C316.854 164.203 316.924 165.067 316.924 166C316.924 169.78 315.967 173.373 314.054 176.78L319.444 181.96C319.35 183.733 318.744 185.18 317.624 186.3C316.504 187.42 315.174 187.98 313.634 187.98C311.767 187.98 309.947 187.093 308.174 185.32L306.844 184.06C305.117 185.32 303.134 186.3 300.894 187C298.7 187.747 296.25 188.12 293.544 188.12C290.79 188.12 288.364 187.747 286.264 187C284.164 186.3 282.39 185.32 280.944 184.06C279.497 182.8 278.4 181.33 277.654 179.65C276.907 177.923 276.534 176.057 276.534 174.05C276.534 172.323 276.79 170.783 277.304 169.43C277.817 168.077 278.494 166.887 279.334 165.86C280.174 164.833 281.107 163.97 282.134 163.27C283.16 162.523 284.21 161.917 285.284 161.45C284.35 160.33 283.674 159.14 283.254 157.88C282.88 156.62 282.694 155.43 282.694 154.31C282.694 152.863 282.997 151.51 283.604 150.25C284.21 148.99 285.074 147.893 286.194 146.96C287.314 146.027 288.667 145.303 290.254 144.79C291.887 144.277 293.73 144.02 295.784 144.02C298.724 144.02 300.8 144.557 302.014 145.63C303.227 146.657 303.834 147.987 303.834 149.62C303.834 150.413 303.67 151.183 303.344 151.93C303.064 152.677 302.62 153.353 302.014 153.96C301.5 153.727 300.894 153.54 300.194 153.4C299.54 153.26 298.84 153.19 298.094 153.19C296.88 153.19 295.877 153.377 295.084 153.75C294.29 154.123 293.894 154.8 293.894 155.78C293.894 156.48 294.197 157.203 294.804 157.95C295.41 158.65 296.157 159.443 297.044 160.33L306.004 169.01C306.237 167.983 306.4 166.77 306.494 165.37C306.634 163.97 306.704 162.36 306.704 160.54ZM287.734 173.28C287.734 174.913 288.27 176.29 289.344 177.41C290.464 178.483 292.097 179.02 294.244 179.02C295.177 179.02 296.157 178.903 297.184 178.67C298.21 178.39 299.19 177.947 300.124 177.34L291.164 168.31C290.044 168.823 289.18 169.523 288.574 170.41C288.014 171.297 287.734 172.253 287.734 173.28ZM364.681 175.31C364.681 176.523 365.054 177.387 365.801 177.9C366.594 178.413 367.691 178.67 369.091 178.67C369.791 178.67 370.514 178.623 371.261 178.53C372.007 178.39 372.661 178.227 373.221 178.04C373.641 178.553 373.991 179.137 374.271 179.79C374.597 180.397 374.761 181.143 374.761 182.03C374.761 183.803 374.084 185.25 372.731 186.37C371.424 187.49 369.091 188.05 365.731 188.05C361.624 188.05 358.451 187.117 356.211 185.25C354.017 183.383 352.921 180.35 352.921 176.15V146.19C353.434 146.05 354.157 145.91 355.091 145.77C356.071 145.583 357.097 145.49 358.171 145.49C360.224 145.49 361.811 145.863 362.931 146.61C364.097 147.31 364.681 148.827 364.681 151.16V155.64H373.851C374.131 156.153 374.387 156.807 374.621 157.6C374.901 158.347 375.041 159.187 375.041 160.12C375.041 161.753 374.667 162.943 373.921 163.69C373.221 164.39 372.264 164.74 371.051 164.74H364.681V175.31ZM392.708 186.93C392.241 187.07 391.495 187.21 390.468 187.35C389.488 187.49 388.461 187.56 387.388 187.56C386.361 187.56 385.428 187.49 384.588 187.35C383.795 187.21 383.118 186.93 382.558 186.51C381.998 186.09 381.555 185.53 381.228 184.83C380.948 184.083 380.808 183.127 380.808 181.96V160.96C380.808 159.887 380.995 158.977 381.368 158.23C381.788 157.437 382.371 156.737 383.118 156.13C383.865 155.523 384.775 154.987 385.848 154.52C386.968 154.007 388.158 153.563 389.418 153.19C390.678 152.817 391.985 152.537 393.338 152.35C394.691 152.117 396.045 152 397.398 152C399.638 152 401.411 152.443 402.718 153.33C404.025 154.17 404.678 155.57 404.678 157.53C404.678 158.183 404.585 158.837 404.398 159.49C404.211 160.097 403.978 160.657 403.698 161.17C402.718 161.17 401.715 161.217 400.688 161.31C399.661 161.403 398.658 161.543 397.678 161.73C396.698 161.917 395.765 162.127 394.878 162.36C394.038 162.547 393.315 162.78 392.708 163.06V186.93ZM423.122 179.44C423.915 179.44 424.779 179.37 425.712 179.23C426.692 179.043 427.415 178.81 427.882 178.53V172.93L422.842 173.35C421.535 173.443 420.462 173.723 419.622 174.19C418.782 174.657 418.362 175.357 418.362 176.29C418.362 177.223 418.712 177.993 419.412 178.6C420.159 179.16 421.395 179.44 423.122 179.44ZM422.562 151.93C425.082 151.93 427.369 152.187 429.422 152.7C431.522 153.213 433.295 154.007 434.742 155.08C436.235 156.107 437.379 157.437 438.172 159.07C438.965 160.657 439.362 162.547 439.362 164.74V180.42C439.362 181.633 439.012 182.637 438.312 183.43C437.659 184.177 436.865 184.83 435.932 185.39C432.899 187.21 428.629 188.12 423.122 188.12C420.649 188.12 418.409 187.887 416.402 187.42C414.442 186.953 412.739 186.253 411.292 185.32C409.892 184.387 408.795 183.197 408.002 181.75C407.255 180.303 406.882 178.623 406.882 176.71C406.882 173.49 407.839 171.017 409.752 169.29C411.665 167.563 414.629 166.49 418.642 166.07L427.812 165.09V164.6C427.812 163.247 427.205 162.29 425.992 161.73C424.825 161.123 423.122 160.82 420.882 160.82C419.109 160.82 417.382 161.007 415.702 161.38C414.022 161.753 412.505 162.22 411.152 162.78C410.545 162.36 410.032 161.73 409.612 160.89C409.192 160.003 408.982 159.093 408.982 158.16C408.982 156.947 409.262 155.99 409.822 155.29C410.429 154.543 411.339 153.913 412.552 153.4C413.905 152.887 415.492 152.513 417.312 152.28C419.179 152.047 420.929 151.93 422.562 151.93ZM468.568 186.09C467.914 186.603 466.958 187.023 465.698 187.35C464.438 187.677 463.014 187.84 461.428 187.84C459.608 187.84 458.021 187.607 456.668 187.14C455.361 186.673 454.451 185.927 453.938 184.9C453.518 184.107 453.004 183.01 452.398 181.61C451.838 180.163 451.231 178.577 450.578 176.85C449.924 175.077 449.248 173.187 448.548 171.18C447.848 169.173 447.171 167.19 446.518 165.23C445.911 163.27 445.351 161.38 444.838 159.56C444.324 157.74 443.904 156.13 443.578 154.73C444.231 154.077 445.094 153.517 446.168 153.05C447.288 152.537 448.501 152.28 449.808 152.28C451.441 152.28 452.771 152.63 453.798 153.33C454.871 153.983 455.664 155.243 456.178 157.11L458.908 167.82C459.421 169.92 459.911 171.833 460.378 173.56C460.844 175.24 461.194 176.547 461.428 177.48H461.778C462.664 174.027 463.598 170.2 464.578 166C465.558 161.8 466.444 157.67 467.238 153.61C468.031 153.19 468.918 152.863 469.898 152.63C470.924 152.397 471.904 152.28 472.838 152.28C474.471 152.28 475.848 152.63 476.968 153.33C478.088 154.03 478.648 155.243 478.648 156.97C478.648 157.717 478.461 158.813 478.088 160.26C477.761 161.66 477.318 163.27 476.758 165.09C476.244 166.863 475.614 168.753 474.868 170.76C474.168 172.767 473.444 174.727 472.698 176.64C471.951 178.553 471.204 180.35 470.458 182.03C469.758 183.663 469.128 185.017 468.568 186.09ZM501.61 188.12C498.857 188.12 496.29 187.747 493.91 187C491.577 186.207 489.524 185.04 487.75 183.5C486.024 181.96 484.647 180.023 483.62 177.69C482.64 175.357 482.15 172.627 482.15 169.5C482.15 166.42 482.64 163.783 483.62 161.59C484.647 159.35 485.977 157.53 487.61 156.13C489.244 154.683 491.11 153.633 493.21 152.98C495.31 152.28 497.457 151.93 499.65 151.93C502.124 151.93 504.364 152.303 506.37 153.05C508.424 153.797 510.174 154.823 511.62 156.13C513.114 157.437 514.257 159 515.05 160.82C515.89 162.64 516.31 164.623 516.31 166.77C516.31 168.357 515.867 169.57 514.98 170.41C514.094 171.25 512.857 171.787 511.27 172.02L493.98 174.61C494.494 176.15 495.544 177.317 497.13 178.11C498.717 178.857 500.537 179.23 502.59 179.23C504.504 179.23 506.3 178.997 507.98 178.53C509.707 178.017 511.107 177.433 512.18 176.78C512.927 177.247 513.557 177.9 514.07 178.74C514.584 179.58 514.84 180.467 514.84 181.4C514.84 183.5 513.86 185.063 511.9 186.09C510.407 186.883 508.727 187.42 506.86 187.7C504.994 187.98 503.244 188.12 501.61 188.12ZM499.65 160.61C498.53 160.61 497.55 160.797 496.71 161.17C495.917 161.543 495.264 162.033 494.75 162.64C494.237 163.2 493.84 163.853 493.56 164.6C493.327 165.3 493.187 166.023 493.14 166.77L505.11 164.81C504.97 163.877 504.457 162.943 503.57 162.01C502.684 161.077 501.377 160.61 499.65 160.61ZM534.148 186.93C533.635 187.023 532.865 187.14 531.838 187.28C530.858 187.467 529.855 187.56 528.828 187.56C527.802 187.56 526.868 187.49 526.028 187.35C525.235 187.21 524.558 186.93 523.998 186.51C523.438 186.09 522.995 185.53 522.668 184.83C522.388 184.083 522.248 183.127 522.248 181.96V141.36C522.762 141.267 523.508 141.15 524.488 141.01C525.515 140.823 526.542 140.73 527.568 140.73C528.595 140.73 529.505 140.8 530.298 140.94C531.138 141.08 531.838 141.36 532.398 141.78C532.958 142.2 533.378 142.783 533.658 143.53C533.985 144.23 534.148 145.163 534.148 146.33V186.93ZM570.358 176.85C570.358 180.397 569.028 183.173 566.368 185.18C563.708 187.187 559.788 188.19 554.608 188.19C552.648 188.19 550.828 188.05 549.148 187.77C547.468 187.49 546.021 187.07 544.808 186.51C543.641 185.903 542.708 185.157 542.008 184.27C541.354 183.383 541.028 182.333 541.028 181.12C541.028 180 541.261 179.067 541.728 178.32C542.194 177.527 542.754 176.873 543.408 176.36C544.761 177.107 546.301 177.783 548.028 178.39C549.801 178.95 551.831 179.23 554.118 179.23C555.564 179.23 556.661 179.02 557.408 178.6C558.201 178.18 558.598 177.62 558.598 176.92C558.598 176.267 558.318 175.753 557.758 175.38C557.198 175.007 556.264 174.703 554.958 174.47L552.858 174.05C548.798 173.257 545.764 172.02 543.758 170.34C541.798 168.613 540.818 166.163 540.818 162.99C540.818 161.263 541.191 159.7 541.938 158.3C542.684 156.9 543.734 155.733 545.088 154.8C546.441 153.867 548.051 153.143 549.918 152.63C551.831 152.117 553.931 151.86 556.218 151.86C557.944 151.86 559.554 152 561.048 152.28C562.588 152.513 563.918 152.887 565.038 153.4C566.158 153.913 567.044 154.59 567.698 155.43C568.351 156.223 568.678 157.18 568.678 158.3C568.678 159.373 568.468 160.307 568.048 161.1C567.674 161.847 567.184 162.477 566.578 162.99C566.204 162.757 565.644 162.523 564.898 162.29C564.151 162.01 563.334 161.777 562.448 161.59C561.561 161.357 560.651 161.17 559.718 161.03C558.831 160.89 558.014 160.82 557.268 160.82C555.728 160.82 554.538 161.007 553.698 161.38C552.858 161.707 552.438 162.243 552.438 162.99C552.438 163.503 552.671 163.923 553.138 164.25C553.604 164.577 554.491 164.88 555.798 165.16L557.968 165.65C562.448 166.677 565.621 168.1 567.488 169.92C569.401 171.693 570.358 174.003 570.358 176.85Z" fill="#110E0E"/>
</g>
<defs>
<clipPath id="clip0">
<rect width="634" height="201" fill="white"/>
</clipPath>
<clipPath id="clip1">
<rect width="113.605" height="124.91" fill="white" transform="translate(122.074 39) rotate(59.0048)"/>
</clipPath>
</defs>
</svg>
