<svg width="552" height="289" viewBox="0 0 552 289" fill="none" xmlns="http://www.w3.org/2000/svg">
<g clip-path="url(#clip0)">
<path d="M279 132.5C279 201.094 240.622 231 187.032 231C133.443 231 90 175.393 90 106.799C90 38.2052 126.911 53.5 180.5 53.5C234.089 53.5 279 63.9059 279 132.5Z" fill="#F3D745"/>
<g clip-path="url(#clip1)">
<path d="M182.588 120.196C177.239 114.235 168.658 112.471 160.652 115.699C159.049 116.351 156.732 117.666 149.487 122.018L140.315 127.528L139.177 126.631C136.094 124.154 131.475 123.534 127.388 125.031C124.8 125.989 124.781 125.482 127.458 129.939L129.792 133.823L107.066 147.554C84.57 161.147 84.3081 161.329 82.9992 162.66C77.7109 168.04 75.7337 174.567 77.3305 181.305C77.7525 183.099 77.8555 183.271 83.3126 192.354C88.7013 201.324 88.9048 201.617 90.2031 202.781C95.5127 207.445 102.396 208.752 109.679 206.502C111.056 206.09 113.349 204.737 134.009 192.404L156.816 178.807L159.161 182.711L161.506 186.615L162.443 185.897C166.488 182.716 168.395 178.253 167.575 173.899L167.317 172.473L176.279 167.089C181.451 163.982 185.896 161.182 186.77 160.502C193.072 155.575 195.929 147.95 194.239 140.49C193.864 138.823 193.691 138.487 188.585 129.892C185.675 125.003 182.969 120.642 182.588 120.196ZM163.818 152.751C165.486 156.855 166.528 161.153 166.655 164.447C166.676 165.289 166.694 166.031 166.675 166.094C166.665 166.127 163.23 167.049 159.072 168.096L151.476 170.015L151.178 169.236C148.555 162.259 140.523 148.89 135.596 143.297L135.047 142.667L140.308 136.862C143.185 133.683 145.613 131.083 145.646 131.09C145.711 131.103 146.357 131.466 147.091 131.881C150.783 134.043 154.689 137.839 158.518 143.03C159.67 144.566 162.964 150.62 163.818 152.751ZM108.676 165.843C111.382 171.579 116.768 180.213 120.796 185.258C121.425 186.021 122.024 186.827 122.161 187.055C122.39 187.436 121.94 188.017 117.42 193.013C114.655 196.049 112.292 198.66 112.18 198.805C111.892 199.134 108.393 196.96 106.408 195.223C102.694 191.935 100.121 188.789 97.2382 183.99C94.3552 179.191 92.7863 175.442 91.6271 170.619C91.0248 168.052 90.7495 163.94 91.175 163.841C91.3563 163.81 94.7721 162.95 98.782 161.94L106.06 160.107L106.611 161.357C106.902 162.036 107.836 164.067 108.676 165.843Z" fill="black"/>
</g>
<path d="M321.864 122.184C321.757 123.187 321.459 123.955 320.968 124.488C320.499 125.021 319.805 125.288 318.888 125.288C318.205 125.288 317.597 125.128 317.064 124.808C316.531 124.467 315.955 123.901 315.336 123.112L312.168 119.144V124.968C311.933 125.011 311.581 125.064 311.112 125.128C310.664 125.213 310.205 125.256 309.736 125.256C309.267 125.256 308.84 125.224 308.456 125.16C308.093 125.096 307.784 124.968 307.528 124.776C307.272 124.584 307.069 124.328 306.92 124.008C306.792 123.667 306.728 123.229 306.728 122.696V104.168C306.963 104.104 307.304 104.04 307.752 103.976C308.221 103.891 308.691 103.848 309.16 103.848C309.629 103.848 310.045 103.88 310.408 103.944C310.792 104.008 311.112 104.136 311.368 104.328C311.624 104.52 311.816 104.787 311.944 105.128C312.093 105.448 312.168 105.875 312.168 106.408V114.856L317.672 109.224C318.781 109.224 319.667 109.469 320.328 109.96C321.011 110.451 321.352 111.069 321.352 111.816C321.352 112.136 321.299 112.435 321.192 112.712C321.085 112.968 320.915 113.235 320.68 113.512C320.467 113.789 320.179 114.088 319.816 114.408C319.475 114.707 319.069 115.059 318.6 115.464L316.744 117.064L321.864 122.184ZM331.133 121.544C331.495 121.544 331.89 121.512 332.317 121.448C332.765 121.363 333.095 121.256 333.309 121.128V118.568L331.005 118.76C330.407 118.803 329.917 118.931 329.533 119.144C329.149 119.357 328.957 119.677 328.957 120.104C328.957 120.531 329.117 120.883 329.437 121.16C329.778 121.416 330.343 121.544 331.133 121.544ZM330.877 108.968C332.029 108.968 333.074 109.085 334.013 109.32C334.973 109.555 335.783 109.917 336.445 110.408C337.127 110.877 337.65 111.485 338.013 112.232C338.375 112.957 338.557 113.821 338.557 114.824V121.992C338.557 122.547 338.397 123.005 338.077 123.368C337.778 123.709 337.415 124.008 336.989 124.264C335.602 125.096 333.65 125.512 331.133 125.512C330.002 125.512 328.978 125.405 328.061 125.192C327.165 124.979 326.386 124.659 325.725 124.232C325.085 123.805 324.583 123.261 324.221 122.6C323.879 121.939 323.709 121.171 323.709 120.296C323.709 118.824 324.146 117.693 325.021 116.904C325.895 116.115 327.25 115.624 329.085 115.432L333.277 114.984V114.76C333.277 114.141 332.999 113.704 332.445 113.448C331.911 113.171 331.133 113.032 330.109 113.032C329.298 113.032 328.509 113.117 327.741 113.288C326.973 113.459 326.279 113.672 325.661 113.928C325.383 113.736 325.149 113.448 324.957 113.064C324.765 112.659 324.669 112.243 324.669 111.816C324.669 111.261 324.797 110.824 325.053 110.504C325.33 110.163 325.746 109.875 326.301 109.64C326.919 109.405 327.645 109.235 328.477 109.128C329.33 109.021 330.13 108.968 330.877 108.968ZM347.323 124.968C347.109 125.032 346.768 125.096 346.299 125.16C345.851 125.224 345.381 125.256 344.891 125.256C344.421 125.256 343.995 125.224 343.611 125.16C343.248 125.096 342.939 124.968 342.683 124.776C342.427 124.584 342.224 124.328 342.075 124.008C341.947 123.667 341.883 123.229 341.883 122.696V113.096C341.883 112.605 341.968 112.189 342.139 111.848C342.331 111.485 342.597 111.165 342.939 110.888C343.28 110.611 343.696 110.365 344.187 110.152C344.699 109.917 345.243 109.715 345.819 109.544C346.395 109.373 346.992 109.245 347.611 109.16C348.229 109.053 348.848 109 349.467 109C350.491 109 351.301 109.203 351.899 109.608C352.496 109.992 352.795 110.632 352.795 111.528C352.795 111.827 352.752 112.125 352.667 112.424C352.581 112.701 352.475 112.957 352.347 113.192C351.899 113.192 351.44 113.213 350.971 113.256C350.501 113.299 350.043 113.363 349.595 113.448C349.147 113.533 348.72 113.629 348.315 113.736C347.931 113.821 347.6 113.928 347.323 114.056V124.968ZM361.226 121.544C361.589 121.544 361.984 121.512 362.41 121.448C362.858 121.363 363.189 121.256 363.402 121.128V118.568L361.098 118.76C360.501 118.803 360.01 118.931 359.626 119.144C359.242 119.357 359.05 119.677 359.05 120.104C359.05 120.531 359.21 120.883 359.53 121.16C359.872 121.416 360.437 121.544 361.226 121.544ZM360.97 108.968C362.122 108.968 363.168 109.085 364.106 109.32C365.066 109.555 365.877 109.917 366.538 110.408C367.221 110.877 367.744 111.485 368.106 112.232C368.469 112.957 368.65 113.821 368.65 114.824V121.992C368.65 122.547 368.49 123.005 368.17 123.368C367.872 123.709 367.509 124.008 367.082 124.264C365.696 125.096 363.744 125.512 361.226 125.512C360.096 125.512 359.072 125.405 358.154 125.192C357.258 124.979 356.48 124.659 355.818 124.232C355.178 123.805 354.677 123.261 354.314 122.6C353.973 121.939 353.802 121.171 353.802 120.296C353.802 118.824 354.24 117.693 355.114 116.904C355.989 116.115 357.344 115.624 359.178 115.432L363.37 114.984V114.76C363.37 114.141 363.093 113.704 362.538 113.448C362.005 113.171 361.226 113.032 360.202 113.032C359.392 113.032 358.602 113.117 357.834 113.288C357.066 113.459 356.373 113.672 355.754 113.928C355.477 113.736 355.242 113.448 355.05 113.064C354.858 112.659 354.762 112.243 354.762 111.816C354.762 111.261 354.89 110.824 355.146 110.504C355.424 110.163 355.84 109.875 356.394 109.64C357.013 109.405 357.738 109.235 358.57 109.128C359.424 109.021 360.224 108.968 360.97 108.968ZM381.833 115.144C381.833 114.483 381.641 114.003 381.257 113.704C380.894 113.384 380.393 113.224 379.753 113.224C379.326 113.224 378.899 113.277 378.473 113.384C378.067 113.491 377.715 113.651 377.417 113.864V124.968C377.203 125.032 376.862 125.096 376.393 125.16C375.945 125.224 375.475 125.256 374.985 125.256C374.515 125.256 374.089 125.224 373.705 125.16C373.342 125.096 373.033 124.968 372.777 124.776C372.521 124.584 372.318 124.328 372.169 124.008C372.041 123.667 371.977 123.229 371.977 122.696V113.096C371.977 112.52 372.094 112.051 372.329 111.688C372.585 111.325 372.926 110.995 373.353 110.696C374.078 110.184 374.985 109.768 376.073 109.448C377.182 109.128 378.409 108.968 379.753 108.968C382.163 108.968 384.019 109.501 385.321 110.568C386.622 111.613 387.273 113.075 387.273 114.952V124.968C387.059 125.032 386.718 125.096 386.249 125.16C385.801 125.224 385.331 125.256 384.841 125.256C384.371 125.256 383.945 125.224 383.561 125.16C383.198 125.096 382.889 124.968 382.633 124.776C382.377 124.584 382.174 124.328 382.025 124.008C381.897 123.667 381.833 123.229 381.833 122.696V115.144ZM402.479 119.656C402.479 120.211 402.65 120.605 402.991 120.84C403.354 121.075 403.855 121.192 404.495 121.192C404.815 121.192 405.146 121.171 405.487 121.128C405.828 121.064 406.127 120.989 406.383 120.904C406.575 121.139 406.735 121.405 406.863 121.704C407.012 121.981 407.087 122.323 407.087 122.728C407.087 123.539 406.778 124.2 406.159 124.712C405.562 125.224 404.495 125.48 402.959 125.48C401.082 125.48 399.631 125.053 398.607 124.2C397.604 123.347 397.103 121.96 397.103 120.04V106.344C397.338 106.28 397.668 106.216 398.095 106.152C398.543 106.067 399.012 106.024 399.503 106.024C400.442 106.024 401.167 106.195 401.679 106.536C402.212 106.856 402.479 107.549 402.479 108.616V110.664H406.671C406.799 110.899 406.916 111.197 407.023 111.56C407.151 111.901 407.215 112.285 407.215 112.712C407.215 113.459 407.044 114.003 406.703 114.344C406.383 114.664 405.946 114.824 405.391 114.824H402.479V119.656ZM425.76 117.224C425.76 118.547 425.557 119.731 425.152 120.776C424.747 121.8 424.171 122.664 423.424 123.368C422.699 124.072 421.824 124.605 420.8 124.968C419.776 125.331 418.635 125.512 417.376 125.512C416.117 125.512 414.976 125.32 413.952 124.936C412.928 124.552 412.043 124.008 411.296 123.304C410.571 122.579 410.005 121.704 409.6 120.68C409.195 119.656 408.992 118.504 408.992 117.224C408.992 115.965 409.195 114.824 409.6 113.8C410.005 112.776 410.571 111.912 411.296 111.208C412.043 110.483 412.928 109.928 413.952 109.544C414.976 109.16 416.117 108.968 417.376 108.968C418.635 108.968 419.776 109.171 420.8 109.576C421.824 109.96 422.699 110.515 423.424 111.24C424.171 111.944 424.747 112.808 425.152 113.832C425.557 114.856 425.76 115.987 425.76 117.224ZM414.56 117.224C414.56 118.525 414.805 119.528 415.296 120.232C415.808 120.915 416.512 121.256 417.408 121.256C418.304 121.256 418.987 120.904 419.456 120.2C419.947 119.496 420.192 118.504 420.192 117.224C420.192 115.944 419.947 114.963 419.456 114.28C418.965 113.576 418.272 113.224 417.376 113.224C416.48 113.224 415.787 113.576 415.296 114.28C414.805 114.963 414.56 115.944 414.56 117.224ZM428.414 109.672C428.627 109.608 428.958 109.544 429.406 109.48C429.875 109.416 430.355 109.384 430.846 109.384C431.315 109.384 431.731 109.416 432.094 109.48C432.478 109.544 432.798 109.672 433.054 109.864C433.31 110.056 433.502 110.323 433.63 110.664C433.779 110.984 433.854 111.411 433.854 111.944V118.824C433.854 119.699 434.067 120.328 434.494 120.712C434.921 121.075 435.539 121.256 436.35 121.256C436.841 121.256 437.235 121.213 437.534 121.128C437.854 121.043 438.099 120.957 438.27 120.872V109.672C438.483 109.608 438.814 109.544 439.262 109.48C439.731 109.416 440.211 109.384 440.702 109.384C441.171 109.384 441.587 109.416 441.95 109.48C442.334 109.544 442.654 109.672 442.91 109.864C443.166 110.056 443.358 110.323 443.486 110.664C443.635 110.984 443.71 111.411 443.71 111.944V121.672C443.71 122.739 443.262 123.539 442.366 124.072C441.619 124.541 440.723 124.893 439.678 125.128C438.654 125.384 437.534 125.512 436.318 125.512C435.166 125.512 434.099 125.384 433.118 125.128C432.158 124.872 431.326 124.477 430.622 123.944C429.918 123.411 429.374 122.728 428.99 121.896C428.606 121.043 428.414 120.019 428.414 118.824V109.672ZM452.479 124.968C452.266 125.032 451.924 125.096 451.455 125.16C451.007 125.224 450.538 125.256 450.047 125.256C449.578 125.256 449.151 125.224 448.767 125.16C448.404 125.096 448.095 124.968 447.839 124.776C447.583 124.584 447.38 124.328 447.231 124.008C447.103 123.667 447.039 123.229 447.039 122.696V113.096C447.039 112.605 447.124 112.189 447.295 111.848C447.487 111.485 447.754 111.165 448.095 110.888C448.436 110.611 448.852 110.365 449.343 110.152C449.855 109.917 450.399 109.715 450.975 109.544C451.551 109.373 452.148 109.245 452.767 109.16C453.386 109.053 454.004 109 454.623 109C455.647 109 456.458 109.203 457.055 109.608C457.652 109.992 457.951 110.632 457.951 111.528C457.951 111.827 457.908 112.125 457.823 112.424C457.738 112.701 457.631 112.957 457.503 113.192C457.055 113.192 456.596 113.213 456.127 113.256C455.658 113.299 455.199 113.363 454.751 113.448C454.303 113.533 453.876 113.629 453.471 113.736C453.087 113.821 452.756 113.928 452.479 114.056V124.968ZM473.315 120.36C473.315 121.981 472.707 123.251 471.491 124.168C470.275 125.085 468.483 125.544 466.115 125.544C465.219 125.544 464.387 125.48 463.619 125.352C462.851 125.224 462.19 125.032 461.635 124.776C461.102 124.499 460.675 124.157 460.355 123.752C460.057 123.347 459.907 122.867 459.907 122.312C459.907 121.8 460.014 121.373 460.227 121.032C460.441 120.669 460.697 120.371 460.995 120.136C461.614 120.477 462.318 120.787 463.107 121.064C463.918 121.32 464.846 121.448 465.891 121.448C466.553 121.448 467.054 121.352 467.395 121.16C467.758 120.968 467.939 120.712 467.939 120.392C467.939 120.093 467.811 119.859 467.555 119.688C467.299 119.517 466.873 119.379 466.275 119.272L465.315 119.08C463.459 118.717 462.073 118.152 461.155 117.384C460.259 116.595 459.811 115.475 459.811 114.024C459.811 113.235 459.982 112.52 460.323 111.88C460.665 111.24 461.145 110.707 461.763 110.28C462.382 109.853 463.118 109.523 463.971 109.288C464.846 109.053 465.806 108.936 466.851 108.936C467.641 108.936 468.377 109 469.059 109.128C469.763 109.235 470.371 109.405 470.883 109.64C471.395 109.875 471.801 110.184 472.099 110.568C472.398 110.931 472.547 111.368 472.547 111.88C472.547 112.371 472.451 112.797 472.259 113.16C472.089 113.501 471.865 113.789 471.587 114.024C471.417 113.917 471.161 113.811 470.819 113.704C470.478 113.576 470.105 113.469 469.699 113.384C469.294 113.277 468.878 113.192 468.451 113.128C468.046 113.064 467.673 113.032 467.331 113.032C466.627 113.032 466.083 113.117 465.699 113.288C465.315 113.437 465.123 113.683 465.123 114.024C465.123 114.259 465.23 114.451 465.443 114.6C465.657 114.749 466.062 114.888 466.659 115.016L467.651 115.24C469.699 115.709 471.15 116.36 472.003 117.192C472.878 118.003 473.315 119.059 473.315 120.36ZM326.35 160.904C326.756 160.733 327.129 160.616 327.47 160.552C327.833 160.467 328.196 160.424 328.558 160.424C329.07 160.424 329.486 160.499 329.806 160.648C330.126 160.797 330.372 161.011 330.542 161.288C330.734 161.544 330.862 161.853 330.926 162.216C330.99 162.579 331.022 162.973 331.022 163.4C331.022 165.128 330.585 166.771 329.71 168.328L332.174 170.696C332.132 171.507 331.854 172.168 331.342 172.68C330.83 173.192 330.222 173.448 329.518 173.448C328.665 173.448 327.833 173.043 327.022 172.232L326.414 171.656C325.625 172.232 324.718 172.68 323.694 173C322.692 173.341 321.572 173.512 320.334 173.512C319.076 173.512 317.966 173.341 317.006 173C316.046 172.68 315.236 172.232 314.574 171.656C313.913 171.08 313.412 170.408 313.07 169.64C312.729 168.851 312.558 167.997 312.558 167.08C312.558 166.291 312.676 165.587 312.91 164.968C313.145 164.349 313.454 163.805 313.838 163.336C314.222 162.867 314.649 162.472 315.118 162.152C315.588 161.811 316.068 161.533 316.558 161.32C316.132 160.808 315.822 160.264 315.63 159.688C315.46 159.112 315.374 158.568 315.374 158.056C315.374 157.395 315.513 156.776 315.79 156.2C316.068 155.624 316.462 155.123 316.974 154.696C317.486 154.269 318.105 153.939 318.83 153.704C319.577 153.469 320.42 153.352 321.358 153.352C322.702 153.352 323.652 153.597 324.206 154.088C324.761 154.557 325.038 155.165 325.038 155.912C325.038 156.275 324.964 156.627 324.814 156.968C324.686 157.309 324.484 157.619 324.206 157.896C323.972 157.789 323.694 157.704 323.374 157.64C323.076 157.576 322.756 157.544 322.414 157.544C321.86 157.544 321.401 157.629 321.038 157.8C320.676 157.971 320.494 158.28 320.494 158.728C320.494 159.048 320.633 159.379 320.91 159.72C321.188 160.04 321.529 160.403 321.934 160.808L326.03 164.776C326.137 164.307 326.212 163.752 326.254 163.112C326.318 162.472 326.35 161.736 326.35 160.904ZM317.678 166.728C317.678 167.475 317.924 168.104 318.414 168.616C318.926 169.107 319.673 169.352 320.654 169.352C321.081 169.352 321.529 169.299 321.998 169.192C322.468 169.064 322.916 168.861 323.342 168.584L319.246 164.456C318.734 164.691 318.34 165.011 318.062 165.416C317.806 165.821 317.678 166.259 317.678 166.728ZM352.854 167.656C352.854 168.211 353.025 168.605 353.366 168.84C353.729 169.075 354.23 169.192 354.87 169.192C355.19 169.192 355.521 169.171 355.862 169.128C356.203 169.064 356.502 168.989 356.758 168.904C356.95 169.139 357.11 169.405 357.238 169.704C357.387 169.981 357.462 170.323 357.462 170.728C357.462 171.539 357.153 172.2 356.534 172.712C355.937 173.224 354.87 173.48 353.334 173.48C351.457 173.48 350.006 173.053 348.982 172.2C347.979 171.347 347.478 169.96 347.478 168.04V154.344C347.713 154.28 348.043 154.216 348.47 154.152C348.918 154.067 349.387 154.024 349.878 154.024C350.817 154.024 351.542 154.195 352.054 154.536C352.587 154.856 352.854 155.549 352.854 156.616V158.664H357.046C357.174 158.899 357.291 159.197 357.398 159.56C357.526 159.901 357.59 160.285 357.59 160.712C357.59 161.459 357.419 162.003 357.078 162.344C356.758 162.664 356.321 162.824 355.766 162.824H352.854V167.656ZM365.667 172.968C365.453 173.032 365.112 173.096 364.643 173.16C364.195 173.224 363.725 173.256 363.235 173.256C362.765 173.256 362.339 173.224 361.955 173.16C361.592 173.096 361.283 172.968 361.027 172.776C360.771 172.584 360.568 172.328 360.419 172.008C360.291 171.667 360.227 171.229 360.227 170.696V161.096C360.227 160.605 360.312 160.189 360.483 159.848C360.675 159.485 360.941 159.165 361.283 158.888C361.624 158.611 362.04 158.365 362.531 158.152C363.043 157.917 363.587 157.715 364.163 157.544C364.739 157.373 365.336 157.245 365.955 157.16C366.573 157.053 367.192 157 367.811 157C368.835 157 369.645 157.203 370.243 157.608C370.84 157.992 371.139 158.632 371.139 159.528C371.139 159.827 371.096 160.125 371.011 160.424C370.925 160.701 370.819 160.957 370.691 161.192C370.243 161.192 369.784 161.213 369.315 161.256C368.845 161.299 368.387 161.363 367.939 161.448C367.491 161.533 367.064 161.629 366.659 161.736C366.275 161.821 365.944 161.928 365.667 162.056V172.968ZM379.57 169.544C379.933 169.544 380.327 169.512 380.754 169.448C381.202 169.363 381.533 169.256 381.746 169.128V166.568L379.442 166.76C378.845 166.803 378.354 166.931 377.97 167.144C377.586 167.357 377.394 167.677 377.394 168.104C377.394 168.531 377.554 168.883 377.874 169.16C378.215 169.416 378.781 169.544 379.57 169.544ZM379.314 156.968C380.466 156.968 381.511 157.085 382.45 157.32C383.41 157.555 384.221 157.917 384.882 158.408C385.565 158.877 386.087 159.485 386.45 160.232C386.813 160.957 386.994 161.821 386.994 162.824V169.992C386.994 170.547 386.834 171.005 386.514 171.368C386.215 171.709 385.853 172.008 385.426 172.264C384.039 173.096 382.087 173.512 379.57 173.512C378.439 173.512 377.415 173.405 376.498 173.192C375.602 172.979 374.823 172.659 374.162 172.232C373.522 171.805 373.021 171.261 372.658 170.6C372.317 169.939 372.146 169.171 372.146 168.296C372.146 166.824 372.583 165.693 373.458 164.904C374.333 164.115 375.687 163.624 377.522 163.432L381.714 162.984V162.76C381.714 162.141 381.437 161.704 380.882 161.448C380.349 161.171 379.57 161.032 378.546 161.032C377.735 161.032 376.946 161.117 376.178 161.288C375.41 161.459 374.717 161.672 374.098 161.928C373.821 161.736 373.586 161.448 373.394 161.064C373.202 160.659 373.106 160.243 373.106 159.816C373.106 159.261 373.234 158.824 373.49 158.504C373.767 158.163 374.183 157.875 374.738 157.64C375.357 157.405 376.082 157.235 376.914 157.128C377.767 157.021 378.567 156.968 379.314 156.968ZM400.345 172.584C400.047 172.819 399.609 173.011 399.033 173.16C398.457 173.309 397.807 173.384 397.081 173.384C396.249 173.384 395.524 173.277 394.905 173.064C394.308 172.851 393.892 172.509 393.657 172.04C393.465 171.677 393.231 171.176 392.953 170.536C392.697 169.875 392.42 169.149 392.121 168.36C391.823 167.549 391.513 166.685 391.193 165.768C390.873 164.851 390.564 163.944 390.265 163.048C389.988 162.152 389.732 161.288 389.497 160.456C389.263 159.624 389.071 158.888 388.921 158.248C389.22 157.949 389.615 157.693 390.105 157.48C390.617 157.245 391.172 157.128 391.769 157.128C392.516 157.128 393.124 157.288 393.593 157.608C394.084 157.907 394.447 158.483 394.681 159.336L395.929 164.232C396.164 165.192 396.388 166.067 396.601 166.856C396.815 167.624 396.975 168.221 397.081 168.648H397.241C397.647 167.069 398.073 165.32 398.521 163.4C398.969 161.48 399.375 159.592 399.737 157.736C400.1 157.544 400.505 157.395 400.953 157.288C401.423 157.181 401.871 157.128 402.297 157.128C403.044 157.128 403.673 157.288 404.185 157.608C404.697 157.928 404.953 158.483 404.953 159.272C404.953 159.613 404.868 160.115 404.697 160.776C404.548 161.416 404.345 162.152 404.089 162.984C403.855 163.795 403.567 164.659 403.225 165.576C402.905 166.493 402.575 167.389 402.233 168.264C401.892 169.139 401.551 169.96 401.209 170.728C400.889 171.475 400.601 172.093 400.345 172.584ZM415.451 173.512C414.192 173.512 413.019 173.341 411.931 173C410.864 172.637 409.925 172.104 409.115 171.4C408.325 170.696 407.696 169.811 407.227 168.744C406.779 167.677 406.555 166.429 406.555 165C406.555 163.592 406.779 162.387 407.227 161.384C407.696 160.36 408.304 159.528 409.051 158.888C409.797 158.227 410.651 157.747 411.611 157.448C412.571 157.128 413.552 156.968 414.555 156.968C415.685 156.968 416.709 157.139 417.627 157.48C418.565 157.821 419.365 158.291 420.027 158.888C420.709 159.485 421.232 160.2 421.595 161.032C421.979 161.864 422.171 162.771 422.171 163.752C422.171 164.477 421.968 165.032 421.562 165.416C421.157 165.8 420.592 166.045 419.867 166.152L411.963 167.336C412.197 168.04 412.677 168.573 413.403 168.936C414.128 169.277 414.96 169.448 415.899 169.448C416.773 169.448 417.595 169.341 418.363 169.128C419.152 168.893 419.792 168.627 420.283 168.328C420.624 168.541 420.912 168.84 421.147 169.224C421.381 169.608 421.499 170.013 421.499 170.44C421.499 171.4 421.051 172.115 420.155 172.584C419.472 172.947 418.704 173.192 417.851 173.32C416.997 173.448 416.197 173.512 415.451 173.512ZM414.555 160.936C414.043 160.936 413.595 161.021 413.211 161.192C412.848 161.363 412.549 161.587 412.315 161.864C412.08 162.12 411.899 162.419 411.771 162.76C411.664 163.08 411.6 163.411 411.579 163.752L417.051 162.856C416.987 162.429 416.752 162.003 416.347 161.576C415.941 161.149 415.344 160.936 414.555 160.936ZM430.325 172.968C430.09 173.011 429.738 173.064 429.269 173.128C428.821 173.213 428.362 173.256 427.893 173.256C427.424 173.256 426.997 173.224 426.613 173.16C426.25 173.096 425.941 172.968 425.685 172.776C425.429 172.584 425.226 172.328 425.077 172.008C424.949 171.667 424.885 171.229 424.885 170.696V152.136C425.12 152.093 425.461 152.04 425.909 151.976C426.378 151.891 426.848 151.848 427.317 151.848C427.786 151.848 428.202 151.88 428.565 151.944C428.949 152.008 429.269 152.136 429.525 152.328C429.781 152.52 429.973 152.787 430.101 153.128C430.25 153.448 430.325 153.875 430.325 154.408V172.968ZM446.878 168.36C446.878 169.981 446.27 171.251 445.054 172.168C443.838 173.085 442.046 173.544 439.678 173.544C438.782 173.544 437.95 173.48 437.182 173.352C436.414 173.224 435.752 173.032 435.198 172.776C434.664 172.499 434.238 172.157 433.918 171.752C433.619 171.347 433.47 170.867 433.47 170.312C433.47 169.8 433.576 169.373 433.79 169.032C434.003 168.669 434.259 168.371 434.558 168.136C435.176 168.477 435.88 168.787 436.67 169.064C437.48 169.32 438.408 169.448 439.454 169.448C440.115 169.448 440.616 169.352 440.958 169.16C441.32 168.968 441.502 168.712 441.502 168.392C441.502 168.093 441.374 167.859 441.118 167.688C440.862 167.517 440.435 167.379 439.838 167.272L438.878 167.08C437.022 166.717 435.635 166.152 434.718 165.384C433.822 164.595 433.374 163.475 433.374 162.024C433.374 161.235 433.544 160.52 433.886 159.88C434.227 159.24 434.707 158.707 435.326 158.28C435.944 157.853 436.68 157.523 437.534 157.288C438.408 157.053 439.368 156.936 440.414 156.936C441.203 156.936 441.939 157 442.622 157.128C443.326 157.235 443.934 157.405 444.446 157.64C444.958 157.875 445.363 158.184 445.662 158.568C445.96 158.931 446.11 159.368 446.11 159.88C446.11 160.371 446.014 160.797 445.822 161.16C445.651 161.501 445.427 161.789 445.15 162.024C444.979 161.917 444.723 161.811 444.382 161.704C444.04 161.576 443.667 161.469 443.262 161.384C442.856 161.277 442.44 161.192 442.014 161.128C441.608 161.064 441.235 161.032 440.894 161.032C440.19 161.032 439.646 161.117 439.262 161.288C438.878 161.437 438.686 161.683 438.686 162.024C438.686 162.259 438.792 162.451 439.006 162.6C439.219 162.749 439.624 162.888 440.222 163.016L441.214 163.24C443.262 163.709 444.712 164.36 445.566 165.192C446.44 166.003 446.878 167.059 446.878 168.36Z" fill="#110E0E"/>
</g>
<defs>
<clipPath id="clip0">
<rect width="552" height="289" fill="white"/>
</clipPath>
<clipPath id="clip1">
<rect width="113.605" height="124.91" fill="white" transform="translate(160.074 80) rotate(59.0048)"/>
</clipPath>
</defs>
</svg>
