
<svg width="360" height="409" viewBox="0 0 360 409" fill="none" xmlns="http://www.w3.org/2000/svg">
<path d="M3.68401 399.896L0.5 402.865V-3.5H358.746L323.486 29.9474C322.976 30.4311 322.574 31.1042 322.3 31.881C321.871 33.1034 321.786 34.4824 321.99 35.7297C322.192 36.9693 322.69 38.1391 323.487 38.8944L355.803 69.5114C356.114 69.8064 356.396 70.2265 356.617 70.7508L3.68551 399.894L3.68401 399.896ZM0.5 404.232L2.03066 402.805C1.7934 403.769 1.75799 404.73 1.7274 405.56C1.72398 405.653 1.72062 405.744 1.71703 405.834C1.68038 406.75 1.62381 407.415 1.39083 407.862C1.28509 408.065 1.14622 408.212 0.949826 408.316C0.83386 408.377 0.687252 408.428 0.5 408.461V404.232Z" fill="url(#paint0_linear)" stroke="#CE4FD0"/>
<defs>
<linearGradient id="paint0_linear" x1="88.4556" y1="163.027" x2="217.873" y2="117.559" gradientUnits="userSpaceOnUse">
<stop stop-color="#E010F2"/>
<stop offset="1" stop-color="#EE27CE"/>
</linearGradient>
</defs>
</svg>
