<?xml version="1.0" encoding="utf-8"?>
<!-- Generator: Adobe Illustrator 25.4.1, SVG Export Plug-In . SVG Version: 6.00 Build 0)  -->
<svg version="1.1" id="Layer_1" xmlns="http://www.w3.org/2000/svg" xmlns:xlink="http://www.w3.org/1999/xlink" x="0px" y="0px"
	 viewBox="0 0 1000 1000" style="enable-background:new 0 0 1000 1000;" xml:space="preserve">
<style type="text/css">
	.st0{fill:#003A68;}
	.st1{fill:url(#SVGID_1_);}
	.st2{fill:url(#SVGID_00000144315948991473965430000010337751015952070019_);}
	.st3{fill:url(#SVGID_00000011751816483483658350000008851780747543483570_);}
	.st4{fill:url(#SVGID_00000023276876053389334170000002139399865045502099_);}
	.st5{fill:url(#SVGID_00000123436793332140110760000006593040341664336545_);}
	.st6{fill:url(#SVGID_00000054951383562192596280000015355250089896578997_);}
	.st7{fill:url(#SVGID_00000080201065796270878940000009491437181627457706_);}
	.st8{fill:url(#SVGID_00000083805449868832159490000006438077221935868038_);}
	.st9{fill:url(#SVGID_00000003804825498162567080000002319848271035901099_);}
	.st10{fill:url(#SVGID_00000085939278241468823710000001991937390632027056_);}
	.st11{fill:url(#SVGID_00000049196372086081646710000017394106531337446324_);}
	.st12{fill:url(#SVGID_00000036958572590040878290000010980718673317440385_);}
	.st13{fill:url(#SVGID_00000020367443723496503800000009061574722381329294_);}
	.st14{fill:url(#SVGID_00000109009065939540320150000011509557039012483723_);}
	.st15{fill:url(#SVGID_00000056415123647117498720000001405168762017668287_);}
	.st16{fill:url(#SVGID_00000093170596647753754160000015289490485776181656_);}
	.st17{fill:url(#SVGID_00000086682103180723951840000010317516730553047434_);}
	.st18{fill:url(#SVGID_00000105401915938092872540000003256982822327917728_);}
	.st19{fill:url(#SVGID_00000037684450535040741650000008729015109285242557_);}
	.st20{fill:url(#SVGID_00000100361011027703387720000010262092108455518364_);}
	.st21{fill:url(#SVGID_00000134249401972218406480000010520323728493250212_);}
	.st22{fill:url(#SVGID_00000003826361076445716890000008376883001999886998_);}
</style>
<g>
	<path class="st0" d="M1834.28,476.04c-7.78-13.33-14.67-24.96-18.85-31.84c-2.69-4.41-8.78-9.45-13.55-9.46
		c-7.39-0.01-16.92,12.18-25.42,26.5c-8.71,14.68-0.53,36.12,19,33.27c10.15-1.48,16.72,11.05,11.68,19.99l-5.83,10.35
		c-17.11,30.39-55.62,41.15-86,24.04c-30.39-17.11-28.05-42.52-10.94-72.91l62.85-111.61c2.32-4.12,2.3-9.15-0.05-13.25l-0.19-0.31
		v0l-75.51-122.02c-9.58-16.71-27.36-27.01-46.61-27.01l0,0c-19.41,0-37.35,10.33-47.08,27.12l-197.84,340.98
		c-5.19,8.94,1.26,20.14,11.6,20.14h17.14l-0.01,0.02h81.83c23.42,0,42.4-18.98,42.4-42.4v-6.46h-74.86l108.16-182.55
		c8.16-13.77,21.04-23.03,35.36-26.92c6.68-2.38,13.7-3.15,21.01-1.84c8.47,0.78,16.9,3.4,24.7,8.02l2.93,1.74
		c28.11,16.66,37.4,52.95,20.74,81.06l-89.6,151.23c-4.51,7.62,0.47,17.58,9.31,18.08c0.26,0.01,0.53,0.02,0.8,0.02h263.92
		c10.3,0,16.76-11.14,11.63-20.07l-9.03-15.76l0.5,0.11C1870.77,539.31,1850.56,503.94,1834.28,476.04"/>
	<g>
		<linearGradient id="SVGID_1_" gradientUnits="userSpaceOnUse" x1="1273.9707" y1="596.5682" x2="1266.6" y2="729.2421">
			<stop  offset="0" style="stop-color:#EC9700"/>
			<stop  offset="1" style="stop-color:#F56E03"/>
		</linearGradient>
		<path class="st1" d="M1251.81,621.6l-28.96,94.02h23.35l5.71-18.56h25.19l5.3,18.56h29.47l-29.47-94.02H1251.81z M1256.8,676.56
			l7.55-27.33l7.65,27.33H1256.8z"/>
		
			<linearGradient id="SVGID_00000071556553141764257170000008014248137690645920_" gradientUnits="userSpaceOnUse" x1="1357.1666" y1="601.1902" x2="1349.7959" y2="733.8641">
			<stop  offset="0" style="stop-color:#EC9700"/>
			<stop  offset="1" style="stop-color:#F56E03"/>
		</linearGradient>
		<polygon style="fill:url(#SVGID_00000071556553141764257170000008014248137690645920_);" points="1386.41,692.57 1349.29,692.57 
			1349.29,621.6 1320.43,621.6 1320.43,715.61 1386.41,715.61 		"/>
		
			<linearGradient id="SVGID_00000044865447791393253740000008960301230594354576_" gradientUnits="userSpaceOnUse" x1="1438.1687" y1="605.6903" x2="1430.798" y2="738.3642">
			<stop  offset="0" style="stop-color:#EC9700"/>
			<stop  offset="1" style="stop-color:#F56E03"/>
		</linearGradient>
		<path style="fill:url(#SVGID_00000044865447791393253740000008960301230594354576_);" d="M1459.42,625.06
			c-5.2-2.35-12.85-3.47-22.84-3.47h-40.18v94.02h29.37v-34.16h16.32c10.4,0,18.76-2.75,24.98-8.26c6.22-5.51,9.38-12.75,9.38-21.72
			c0-5.91-1.53-11.22-4.59-15.91C1468.8,630.87,1464.62,627.31,1459.42,625.06z M1434.95,661.26h-9.69v-18.15h10.71
			c7.85,0,11.73,2.86,11.73,8.77C1447.69,658.1,1443.41,661.26,1434.95,661.26z"/>
		
			<linearGradient id="SVGID_00000047767145851843446220000003471935756108905404_" gradientUnits="userSpaceOnUse" x1="1530.2905" y1="610.8082" x2="1522.9198" y2="743.4821">
			<stop  offset="0" style="stop-color:#EC9700"/>
			<stop  offset="1" style="stop-color:#F56E03"/>
		</linearGradient>
		<polygon style="fill:url(#SVGID_00000047767145851843446220000003471935756108905404_);" points="1567,715.61 1567,621.6 
			1538.14,621.6 1538.14,656.16 1516.02,656.16 1516.02,621.6 1487.16,621.6 1487.16,715.61 1516.02,715.61 1516.02,679.01 
			1538.14,679.01 1538.14,715.61 		"/>
		
			<linearGradient id="SVGID_00000110431204769329116170000000342666854606555018_" gradientUnits="userSpaceOnUse" x1="1625.708" y1="616.1092" x2="1618.3373" y2="748.7831">
			<stop  offset="0" style="stop-color:#EC9700"/>
			<stop  offset="1" style="stop-color:#F56E03"/>
		</linearGradient>
		<path style="fill:url(#SVGID_00000110431204769329116170000000342666854606555018_);" d="M1604.73,697.05h25.19l5.3,18.56h29.47
			l-29.47-94.02h-30.59l-28.96,94.02h23.35L1604.73,697.05z M1617.17,649.23l7.65,27.33h-15.19L1617.17,649.23z"/>
		
			<linearGradient id="SVGID_00000044893161009102273970000010145522346982672565_" gradientUnits="userSpaceOnUse" x1="1712.7761" y1="620.9463" x2="1705.4053" y2="753.6202">
			<stop  offset="0" style="stop-color:#EC9700"/>
			<stop  offset="1" style="stop-color:#F56E03"/>
		</linearGradient>
		<path style="fill:url(#SVGID_00000044893161009102273970000010145522346982672565_);" d="M1710.68,640.97
			c7.24,0,11.52,4.89,12.95,14.68l27.94-2.75c-2.04-10.4-6.42-18.56-13.26-24.27c-6.93-5.61-15.91-8.46-27.12-8.46
			c-14.89,0-26.21,4.79-33.75,14.28c-7.55,9.59-11.32,21.41-11.32,35.49c0,14.48,3.88,25.9,11.73,34.47
			c7.85,8.46,17.74,12.64,29.88,12.64c11.42,0,20.09-3.77,25.9-11.32c1.43,2.75,2.65,6.02,3.77,9.89h14.17v-52.72h-42.42v19.99h15.6
			c0,3.67-1.33,6.63-3.77,8.67c-2.45,2.14-5.4,3.16-8.87,3.16c-4.38,0-8.06-1.73-11.01-5.2c-3.06-3.47-4.59-10.61-4.59-21.52
			C1696.51,650.05,1701.3,640.97,1710.68,640.97z"/>
		
			<linearGradient id="SVGID_00000072271931158574468760000002657394153101834922_" gradientUnits="userSpaceOnUse" x1="1810.9688" y1="626.4014" x2="1803.5979" y2="759.0753">
			<stop  offset="0" style="stop-color:#EC9700"/>
			<stop  offset="1" style="stop-color:#F56E03"/>
		</linearGradient>
		<path style="fill:url(#SVGID_00000072271931158574468760000002657394153101834922_);" d="M1846.81,663.61
			c2.24-4.08,3.37-8.87,3.37-14.38c0-8.26-3.06-14.99-8.97-20.09c-6.02-5-14.48-7.55-25.29-7.55h-49.15v94.02h28.86v-36h9.18
			l13.66,36h32.02l-17.03-40.99C1840.18,671.46,1844.67,667.79,1846.81,663.61z M1816.73,657.29c-2.14,1.53-5.1,2.24-8.77,2.24
			h-12.34v-17.95h13.36c7.34,0,11.11,2.96,11.11,8.97C1820.1,653.51,1818.97,655.76,1816.73,657.29z"/>
		
			<linearGradient id="SVGID_00000089574881157615072120000001372701384881278895_" gradientUnits="userSpaceOnUse" x1="1905.573" y1="631.6572" x2="1898.2021" y2="764.3311">
			<stop  offset="0" style="stop-color:#EC9700"/>
			<stop  offset="1" style="stop-color:#F56E03"/>
		</linearGradient>
		<path style="fill:url(#SVGID_00000089574881157615072120000001372701384881278895_);" d="M1915.95,621.6h-30.59l-28.96,94.02
			h23.35l5.71-18.56h25.19l5.3,18.56h29.47L1915.95,621.6z M1890.35,676.56l7.55-27.33l7.65,27.33H1890.35z"/>
		
			<linearGradient id="SVGID_00000042700419542607974170000001117994798340412574_" gradientUnits="userSpaceOnUse" x1="2006.9657" y1="637.2902" x2="1999.5948" y2="769.9641">
			<stop  offset="0" style="stop-color:#EC9700"/>
			<stop  offset="1" style="stop-color:#F56E03"/>
		</linearGradient>
		<polygon style="fill:url(#SVGID_00000042700419542607974170000001117994798340412574_);" points="2029.55,648.41 2029.55,715.61 
			2056.36,715.61 2056.36,621.6 2018.53,621.6 2005.48,671.56 1991.82,621.6 1954.09,621.6 1954.09,715.61 1975.81,715.61 
			1975.81,648.41 1993.86,715.61 2012.21,715.61 		"/>
		
			<linearGradient id="SVGID_00000170275854355475058610000011203558078205312397_" gradientUnits="userSpaceOnUse" x1="1266.3237" y1="596.1434" x2="1258.953" y2="728.8173">
			<stop  offset="0" style="stop-color:#EC9700"/>
			<stop  offset="1" style="stop-color:#F56E03"/>
		</linearGradient>
		<polygon style="fill:url(#SVGID_00000170275854355475058610000011203558078205312397_);" points="1276.48,771.09 1267.31,735.4 
			1252.42,735.4 1243.95,771.09 1235.29,735.4 1217.44,735.4 1233.86,797.29 1250.48,797.29 1258.74,763.13 1267.31,797.29 
			1283.32,797.29 1299.73,735.4 1285.15,735.4 		"/>
		
			<linearGradient id="SVGID_00000029044300865476122330000012389058461199803580_" gradientUnits="userSpaceOnUse" x1="1349.3136" y1="600.7539" x2="1341.9427" y2="733.4278">
			<stop  offset="0" style="stop-color:#EC9700"/>
			<stop  offset="1" style="stop-color:#F56E03"/>
		</linearGradient>
		<polygon style="fill:url(#SVGID_00000029044300865476122330000012389058461199803580_);" points="1316.86,797.29 1363.36,797.29 
			1363.36,782.51 1335.53,782.51 1335.53,772.41 1358.06,772.41 1358.06,758.65 1335.53,758.65 1335.53,749.67 1363.36,749.67 
			1363.36,735.4 1316.86,735.4 		"/>
		
			<linearGradient id="SVGID_00000172409517814288832330000014837293065977039257_" gradientUnits="userSpaceOnUse" x1="1416.5432" y1="604.4889" x2="1409.1725" y2="737.1628">
			<stop  offset="0" style="stop-color:#EC9700"/>
			<stop  offset="1" style="stop-color:#F56E03"/>
		</linearGradient>
		<path style="fill:url(#SVGID_00000172409517814288832330000014837293065977039257_);" d="M1421.9,765.17
			c3.47-0.92,6.02-2.65,7.75-5.2c1.73-2.45,2.65-5.2,2.65-8.26c0-4.28-1.53-8.06-4.49-11.32c-3.06-3.26-7.75-5-14.28-5h-31.41v61.9
			h29.47c9.18,0,15.3-1.84,18.05-5.4c2.86-3.67,4.28-7.75,4.28-12.34C1433.93,771.9,1429.95,767.11,1421.9,765.17z M1399.56,748.75
			h8.57c4.18,0,6.32,1.73,6.32,5.1c0,1.33-0.51,2.45-1.43,3.57c-0.82,1.12-2.45,1.73-4.59,1.73h-8.87V748.75z M1413.94,781.79
			c-1.12,1.12-2.75,1.73-5.1,1.73h-9.28v-11.22h8.67c2.75,0,4.69,0.61,5.71,1.73c1.02,1.22,1.53,2.55,1.53,3.98
			S1414.96,780.67,1413.94,781.79z"/>
		
			<linearGradient id="SVGID_00000016058331865409539980000016428453234862456493_" gradientUnits="userSpaceOnUse" x1="1517.8799" y1="610.1187" x2="1510.5092" y2="742.7926">
			<stop  offset="0" style="stop-color:#EC9700"/>
			<stop  offset="1" style="stop-color:#F56E03"/>
		</linearGradient>
		<path style="fill:url(#SVGID_00000016058331865409539980000016428453234862456493_);" d="M1525.4,760.68
			c-3.16-1.22-8.46-2.55-15.81-4.18c-2.75-0.51-4.49-1.12-5.4-1.73c-1.02-0.71-1.43-1.53-1.43-2.65c0-2.65,2.04-3.87,6.22-3.87
			c5,0,8.26,2.04,9.89,6.22l15.7-4.79c-4.08-10.1-12.34-15.19-24.98-15.19c-8.26,0-14.68,1.94-19.07,5.81s-6.63,8.67-6.63,14.58
			c0,4.49,1.53,8.46,4.59,11.83c3.06,3.37,10.1,6.02,20.9,8.16c2.86,0.51,4.79,1.22,5.91,1.94s1.63,1.73,1.63,3.06
			c0,2.55-2.35,3.87-7.14,3.87c-6.12,0-9.89-2.55-11.42-7.55l-17.64,3.16c3.57,12.64,12.85,18.86,27.94,18.86
			c8.26,0,14.89-1.94,19.99-5.81c5.1-3.87,7.65-8.97,7.65-15.19c0-3.98-1.12-7.44-3.16-10.3
			C1531.11,763.95,1528.46,761.91,1525.4,760.68z"/>
		
			<linearGradient id="SVGID_00000011721574140307456520000003527479360423318186_" gradientUnits="userSpaceOnUse" x1="1589.7737" y1="614.1129" x2="1582.403" y2="746.7867">
			<stop  offset="0" style="stop-color:#EC9700"/>
			<stop  offset="1" style="stop-color:#F56E03"/>
		</linearGradient>
		<path style="fill:url(#SVGID_00000011721574140307456520000003527479360423318186_);" d="M1581.58,734.48
			c-9.28,0-16.62,3.06-21.82,9.08c-5.3,6.02-7.85,13.66-7.85,22.84c0,9.69,2.75,17.44,8.16,23.15c5.51,5.81,12.64,8.67,21.31,8.67
			s15.7-2.96,21.21-8.87c5.4-5.91,8.16-13.77,8.16-23.56c0-9.48-2.75-17.13-8.16-22.74
			C1597.19,737.33,1590.15,734.48,1581.58,734.48z M1588.21,779.96c-1.43,2.86-3.67,4.28-6.93,4.28c-5.91,0-8.97-5.81-8.97-17.34
			c0-12.24,3.16-18.35,9.38-18.35c5.71,0,8.67,5.4,8.67,16.11C1590.35,772.11,1589.64,777.2,1588.21,779.96z"/>
		
			<linearGradient id="SVGID_00000070806299071123295770000013608654222159447959_" gradientUnits="userSpaceOnUse" x1="1659.8285" y1="618.0048" x2="1652.4576" y2="750.6786">
			<stop  offset="0" style="stop-color:#EC9700"/>
			<stop  offset="1" style="stop-color:#F56E03"/>
		</linearGradient>
		<polygon style="fill:url(#SVGID_00000070806299071123295770000013608654222159447959_);" points="1648.89,735.4 1629.92,735.4 
			1629.92,797.29 1673.26,797.29 1673.26,782.1 1648.89,782.1 		"/>
		
			<linearGradient id="SVGID_00000010294240854776011870000005481814092595828106_" gradientUnits="userSpaceOnUse" x1="1722.8649" y1="621.5068" x2="1715.4941" y2="754.1807">
			<stop  offset="0" style="stop-color:#EC9700"/>
			<stop  offset="1" style="stop-color:#F56E03"/>
		</linearGradient>
		<path style="fill:url(#SVGID_00000010294240854776011870000005481814092595828106_);" d="M1725.77,771.6
			c0,3.67-0.1,6.02-0.41,7.34c-0.31,1.22-1.12,2.35-2.65,3.26c-1.43,1.02-3.26,1.53-5.61,1.53c-2.75,0-4.69-0.71-6.02-2.04
			c-1.22-1.43-1.84-3.57-1.84-6.53V735.4h-19.27v42.01c0,7.34,2.35,12.64,7.04,15.91c4.79,3.26,11.01,4.89,18.76,4.89
			c7.44,0,13.46-1.63,18.05-5.1c4.59-3.37,6.93-8.97,6.93-16.72V735.4h-14.99V771.6z"/>
		
			<linearGradient id="SVGID_00000053532872963860906150000013537150357431242663_" gradientUnits="userSpaceOnUse" x1="1785.0403" y1="624.9609" x2="1777.6694" y2="757.6348">
			<stop  offset="0" style="stop-color:#EC9700"/>
			<stop  offset="1" style="stop-color:#F56E03"/>
		</linearGradient>
		<polygon style="fill:url(#SVGID_00000053532872963860906150000013537150357431242663_);" points="1756.67,750.28 1769.52,750.28 
			1769.52,797.29 1787.46,797.29 1787.46,750.28 1800.31,750.28 1800.31,735.4 1756.67,735.4 		"/>
		
			<linearGradient id="SVGID_00000169555368577787831760000017849612640934761378_" gradientUnits="userSpaceOnUse" x1="1834.0197" y1="627.6821" x2="1826.6489" y2="760.3559">
			<stop  offset="0" style="stop-color:#EC9700"/>
			<stop  offset="1" style="stop-color:#F56E03"/>
		</linearGradient>
		
			<rect x="1816.83" y="735.4" style="fill:url(#SVGID_00000169555368577787831760000017849612640934761378_);" width="18.97" height="61.9"/>
		
			<linearGradient id="SVGID_00000176027832658147328240000000862830042559316129_" gradientUnits="userSpaceOnUse" x1="1891.9019" y1="630.8977" x2="1884.531" y2="763.5716">
			<stop  offset="0" style="stop-color:#EC9700"/>
			<stop  offset="1" style="stop-color:#F56E03"/>
		</linearGradient>
		<path style="fill:url(#SVGID_00000176027832658147328240000000862830042559316129_);" d="M1884.64,734.48
			c-9.28,0-16.62,3.06-21.82,9.08c-5.3,6.02-7.85,13.66-7.85,22.84c0,9.69,2.75,17.44,8.16,23.15c5.51,5.81,12.64,8.67,21.31,8.67
			c8.67,0,15.7-2.96,21.21-8.87c5.4-5.91,8.16-13.77,8.16-23.56c0-9.48-2.75-17.13-8.16-22.74
			C1900.25,737.33,1893.21,734.48,1884.64,734.48z M1891.27,779.96c-1.43,2.86-3.67,4.28-6.93,4.28c-5.91,0-8.97-5.81-8.97-17.34
			c0-12.24,3.16-18.35,9.38-18.35c5.71,0,8.67,5.4,8.67,16.11C1893.41,772.11,1892.7,777.2,1891.27,779.96z"/>
		
			<linearGradient id="SVGID_00000023267288600967240990000003123960003305177783_" gradientUnits="userSpaceOnUse" x1="1966.6836" y1="635.0522" x2="1959.3129" y2="767.7261">
			<stop  offset="0" style="stop-color:#EC9700"/>
			<stop  offset="1" style="stop-color:#F56E03"/>
		</linearGradient>
		<path style="fill:url(#SVGID_00000023267288600967240990000003123960003305177783_);" d="M1970.4,753.75
			c0,5.51,0.51,10.91,1.43,16.21c-1.43-3.37-3.67-7.34-6.53-11.83l-14.38-22.74h-17.95v61.9h15.4v-29.98c0-2.75-0.51-6.12-1.53-10.1
			c2.24,5,4.38,9.28,6.63,12.75l16.93,27.33h15.4v-61.9h-15.4V753.75z"/>
		
			<linearGradient id="SVGID_00000114764903844774740890000017914124469116089502_" gradientUnits="userSpaceOnUse" x1="2036.9465" y1="638.9557" x2="2029.5757" y2="771.6296">
			<stop  offset="0" style="stop-color:#EC9700"/>
			<stop  offset="1" style="stop-color:#F56E03"/>
		</linearGradient>
		<path style="fill:url(#SVGID_00000114764903844774740890000017914124469116089502_);" d="M2053.82,766.91
			c-2.04-2.96-4.69-5-7.75-6.22c-3.16-1.22-8.46-2.55-15.81-4.18c-2.75-0.51-4.49-1.12-5.4-1.73c-1.02-0.71-1.43-1.53-1.43-2.65
			c0-2.65,2.04-3.87,6.22-3.87c5,0,8.26,2.04,9.89,6.22l15.7-4.79c-4.08-10.1-12.34-15.19-24.98-15.19
			c-8.26,0-14.68,1.94-19.07,5.81c-4.38,3.87-6.63,8.67-6.63,14.58c0,4.49,1.53,8.46,4.59,11.83c3.06,3.37,10.1,6.02,20.9,8.16
			c2.86,0.51,4.79,1.22,5.91,1.94c1.12,0.71,1.63,1.73,1.63,3.06c0,2.55-2.35,3.87-7.14,3.87c-6.12,0-9.89-2.55-11.42-7.55
			l-17.64,3.16c3.57,12.64,12.85,18.86,27.94,18.86c8.26,0,14.89-1.94,19.99-5.81c5.1-3.87,7.65-8.97,7.65-15.19
			C2056.98,773.23,2055.85,769.76,2053.82,766.91z"/>
	</g>
</g>
<g>
	
		<linearGradient id="SVGID_00000060717888280626957870000011086932677062970283_" gradientUnits="userSpaceOnUse" x1="263.3232" y1="396.98" x2="749.0236" y2="396.98">
		<stop  offset="0" style="stop-color:#EC9700"/>
		<stop  offset="1" style="stop-color:#F56E03"/>
	</linearGradient>
	<path style="fill:url(#SVGID_00000060717888280626957870000011086932677062970283_);" d="M695.08,476.29
		c-7.7-13.2-14.52-24.71-18.66-31.52c-2.66-4.37-8.69-9.36-13.41-9.36c-7.32-0.01-16.75,12.05-25.16,26.23
		c-8.63,14.53-0.52,35.75,18.8,32.93c10.05-1.47,16.55,10.94,11.56,19.78l-5.77,10.25c-16.94,30.08-55.05,40.73-85.13,23.79
		c-30.08-16.94-27.77-42.09-10.83-72.17l62.21-110.47c2.29-4.07,2.28-9.05-0.05-13.11l-0.19-0.3v0l-74.74-120.78
		c-9.48-16.54-27.08-26.74-46.14-26.74l0,0c-19.21,0-36.97,10.23-46.61,26.84L265.14,569.18c-5.13,8.85,1.25,19.93,11.48,19.93
		h16.97l-0.01,0.02h81c23.18,0,41.97-18.79,41.97-41.97v-6.39h-74.1L449.5,360.08c8.08-13.63,20.82-22.79,35-26.65
		c6.61-2.35,13.56-3.12,20.8-1.82c8.38,0.77,16.73,3.37,24.45,7.94l2.9,1.72c27.83,16.49,37.02,52.41,20.53,80.24l-88.69,149.69
		c-4.47,7.54,0.47,17.4,9.22,17.9c0.26,0.01,0.52,0.02,0.79,0.02h261.24c10.2,0,16.58-11.02,11.51-19.87l-8.94-15.6l0.5,0.11
		C731.2,538.91,711.19,503.9,695.08,476.29"/>
	<g>
		<g>
			<path class="st0" d="M148.84,713.41l-5.26-18.34h-24.94l-5.59,18.34h-23.2l28.73-93.08h30.21L178,713.41H148.84z M123.5,674.74
				h15.06l-7.53-27L123.5,674.74z"/>
			<path class="st0" d="M251.83,690.56v22.84h-65.26v-93.08h28.57v70.24H251.83z"/>
			<path class="st0" d="M290.77,679.58v33.82h-28.98v-93.08h39.76c9.91,0,17.45,1.14,22.61,3.41c5.16,2.27,9.25,5.75,12.27,10.43
				c3.02,4.68,4.53,9.93,4.53,15.75c0,8.87-3.09,16.03-9.27,21.48c-6.18,5.46-14.43,8.18-24.75,8.18H290.77z M290.36,659.61h9.55
				c8.41,0,12.62-3.09,12.62-9.27c0-5.82-3.89-8.73-11.66-8.73h-10.5V659.61z"/>
			<path class="st0" d="M430.56,620.33v93.08h-28.57V677.2h-21.82v36.21h-28.57v-93.08h28.57v34.23h21.82v-34.23H430.56z"/>
			<path class="st0" d="M498.05,713.41l-5.26-18.34h-24.94l-5.59,18.34h-23.2l28.73-93.08h30.21l29.19,93.08H498.05z M472.71,674.74
				h15.06l-7.53-27L472.71,674.74z"/>
			<path class="st0" d="M613.24,661.24v52.17h-13.98c-1.14-3.86-2.39-7.11-3.75-9.75c-5.77,7.46-14.32,11.18-25.64,11.18
				c-12,0-21.87-4.19-29.59-12.58c-7.73-8.39-11.59-19.74-11.59-34.06c0-13.91,3.74-25.61,11.22-35.08
				c7.48-9.48,18.6-14.22,33.38-14.22c11.09,0,20.03,2.82,26.8,8.46c6.77,5.64,11.16,13.64,13.16,24l-27.69,2.73
				c-1.36-9.68-5.62-14.52-12.75-14.52c-9.37,0-14.05,8.91-14.05,26.73c0,10.77,1.5,17.88,4.5,21.31c3,3.43,6.64,5.15,10.91,5.15
				c3.45,0,6.4-1.04,8.83-3.14c2.43-2.09,3.67-4.95,3.72-8.59H571.3v-19.78H613.24z"/>
			<path class="st0" d="M711.17,713.41h-31.67l-13.6-35.6h-9.01v35.6h-28.57v-93.08h48.62c10.73,0,19.06,2.51,24.99,7.54
				c5.93,5.02,8.9,11.65,8.9,19.88c0,5.36-1.09,10.1-3.27,14.22c-2.18,4.12-6.59,7.74-13.23,10.88L711.17,713.41z M656.88,657.9
				h12.21c3.59,0,6.48-0.75,8.66-2.25c2.18-1.5,3.27-3.71,3.27-6.61c0-5.96-3.66-8.93-10.98-8.93h-13.16V657.9z"/>
			<path class="st0" d="M775.99,713.41l-5.26-18.34H745.8l-5.59,18.34h-23.2l28.74-93.08h30.21l29.19,93.08H775.99z M750.65,674.74
				h15.06l-7.53-27L750.65,674.74z"/>
			<path class="st0" d="M914.92,620.33v93.08h-26.53v-66.55l-17.22,66.55h-18.14l-17.9-66.55v66.55h-21.41v-93.08h37.33l13.5,49.44
				l12.89-49.44H914.92z"/>
		</g>
	</g>
	<g>
		<g>
			<path class="st0" d="M165.94,733.01l-16.24,61.23h-15.79l-8.56-33.78l-8.09,33.78H100.8l-16.27-61.23h17.68l8.56,35.24
				l8.35-35.24h14.76l9.09,35.31l8.58-35.31H165.94z"/>
			<path class="st0" d="M229,779.61v14.62h-46.06v-61.23H229v14.13h-27.63v8.88h22.34v13.59h-22.34v10H229z"/>
			<path class="st0" d="M247.47,794.23v-61.23h31.08c6.46,0,11.17,1.63,14.13,4.89c2.96,3.26,4.44,6.98,4.44,11.17
				c0,3.05-0.86,5.81-2.58,8.28c-1.72,2.47-4.28,4.16-7.69,5.09c7.92,1.91,11.89,6.67,11.89,14.26c0,4.55-1.4,8.61-4.19,12.18
				c-2.8,3.57-8.77,5.36-17.92,5.36H247.47z M264.78,756.47h8.7c2.18,0,3.72-0.55,4.62-1.66s1.35-2.29,1.35-3.54
				c0-3.41-2.09-5.11-6.28-5.11h-8.39V756.47z M264.78,780.6h9.15c2.27,0,3.94-0.56,5-1.68c1.06-1.12,1.59-2.38,1.59-3.79
				c0-1.4-0.52-2.7-1.55-3.88c-1.03-1.18-2.92-1.77-5.67-1.77h-8.52V780.6z"/>
			<path class="st0" d="M345.18,776.52l17.45-3.14c1.46,4.93,5.23,7.4,11.3,7.4c4.72,0,7.09-1.26,7.09-3.77
				c0-1.32-0.55-2.34-1.64-3.07c-1.09-0.73-3.04-1.38-5.85-1.95c-10.74-2.06-17.63-4.75-20.68-8.07c-3.05-3.32-4.57-7.22-4.57-11.71
				c0-5.77,2.19-10.57,6.57-14.4c4.38-3.83,10.68-5.74,18.91-5.74c12.47,0,20.71,5.01,24.71,15.03l-15.56,4.71
				c-1.61-4.1-4.89-6.14-9.82-6.14c-4.1,0-6.15,1.27-6.15,3.81c0,1.14,0.46,2.02,1.39,2.65c0.93,0.63,2.72,1.22,5.38,1.79
				c7.33,1.55,12.53,2.92,15.61,4.11c3.08,1.19,5.65,3.23,7.71,6.12c2.06,2.89,3.09,6.29,3.09,10.21c0,6.19-2.51,11.21-7.54,15.06
				c-5.02,3.84-11.62,5.77-19.78,5.77C357.89,795.18,348.68,788.96,345.18,776.52z"/>
			<path class="st0" d="M444.79,795.18c-8.61,0-15.63-2.86-21.06-8.57s-8.14-13.35-8.14-22.92c0-9.15,2.59-16.71,7.78-22.67
				c5.19-5.97,12.39-8.95,21.6-8.95c8.52,0,15.47,2.81,20.83,8.43c5.37,5.62,8.05,13.13,8.05,22.52c0,9.72-2.71,17.51-8.12,23.37
				C460.33,792.25,453.35,795.18,444.79,795.18z M444.71,781.27c3.17,0,5.45-1.38,6.84-4.15c1.39-2.77,2.09-7.83,2.09-15.18
				c0-10.65-2.86-15.97-8.57-15.97c-6.16,0-9.24,6.07-9.24,18.21C435.82,775.58,438.78,781.27,444.71,781.27z"/>
			<path class="st0" d="M535.75,779.21v15.03h-42.93v-61.23h18.79v46.2H535.75z"/>
			<path class="st0" d="M602.53,733.01v40.55c0,7.69-2.28,13.21-6.84,16.57c-4.56,3.36-10.5,5.05-17.83,5.05
				c-7.71,0-13.91-1.62-18.59-4.84c-4.68-3.23-7.02-8.49-7.02-15.79v-41.54h19.11v39.34c0,2.93,0.62,5.07,1.86,6.41
				c1.24,1.35,3.21,2.02,5.93,2.02c2.27,0,4.12-0.49,5.57-1.46c1.45-0.97,2.31-2.07,2.59-3.3c0.28-1.23,0.43-3.62,0.43-7.18v-35.84
				H602.53z"/>
			<path class="st0" d="M648.76,747.68v46.56h-17.81v-46.56h-12.69v-14.67h43.19v14.67H648.76z"/>
			<path class="st0" d="M696.61,733.01v61.23h-18.79v-61.23H696.61z"/>
			<path class="st0" d="M744.77,795.18c-8.61,0-15.63-2.86-21.06-8.57c-5.43-5.71-8.14-13.35-8.14-22.92
				c0-9.15,2.59-16.71,7.78-22.67c5.19-5.97,12.39-8.95,21.6-8.95c8.52,0,15.47,2.81,20.83,8.43c5.37,5.62,8.05,13.13,8.05,22.52
				c0,9.72-2.71,17.51-8.12,23.37C760.31,792.25,753.32,795.18,744.77,795.18z M744.68,781.27c3.17,0,5.45-1.38,6.84-4.15
				c1.39-2.77,2.08-7.83,2.08-15.18c0-10.65-2.86-15.97-8.57-15.97c-6.16,0-9.24,6.07-9.24,18.21
				C735.8,775.58,738.76,781.27,744.68,781.27z"/>
			<path class="st0" d="M845.14,794.23h-15.29l-16.77-27.05c-2.15-3.47-4.32-7.68-6.51-12.64c0.99,3.95,1.48,7.3,1.48,10.05v29.65
				H792.8v-61.23h17.76l14.27,22.43c2.84,4.46,4.99,8.37,6.46,11.75c-0.96-5.23-1.43-10.59-1.43-16.06v-18.12h15.29V794.23z"/>
			<path class="st0" d="M860.52,776.52l17.45-3.14c1.46,4.93,5.23,7.4,11.3,7.4c4.72,0,7.09-1.26,7.09-3.77
				c0-1.32-0.55-2.34-1.64-3.07c-1.09-0.73-3.04-1.38-5.85-1.95c-10.74-2.06-17.63-4.75-20.68-8.07c-3.05-3.32-4.57-7.22-4.57-11.71
				c0-5.77,2.19-10.57,6.57-14.4c4.38-3.83,10.68-5.74,18.91-5.74c12.47,0,20.71,5.01,24.71,15.03l-15.56,4.71
				c-1.61-4.1-4.89-6.14-9.82-6.14c-4.1,0-6.14,1.27-6.14,3.81c0,1.14,0.46,2.02,1.39,2.65c0.93,0.63,2.72,1.22,5.38,1.79
				c7.33,1.55,12.53,2.92,15.61,4.11c3.08,1.19,5.65,3.23,7.71,6.12c2.06,2.89,3.09,6.29,3.09,10.21c0,6.19-2.51,11.21-7.54,15.06
				c-5.02,3.84-11.62,5.77-19.78,5.77C873.23,795.18,864.02,788.96,860.52,776.52z"/>
		</g>
	</g>
</g>
</svg>
